<?xml version="1.0" encoding="utf-8"?>
<!-- Generator: Adobe Illustrator 18.1.1, SVG Export Plug-In . SVG Version: 6.00 Build 0)  -->
<!DOCTYPE svg PUBLIC "-//W3C//DTD SVG 1.1//EN" "http://www.w3.org/Graphics/SVG/1.1/DTD/svg11.dtd">
<svg version="1.1" id="Layer_1" xmlns="http://www.w3.org/2000/svg" xmlns:xlink="http://www.w3.org/1999/xlink" x="0px" y="0px"
	 width="100px" height="126.1px" viewBox="0 0 100 126.1" enable-background="new 0 0 100 126.1" xml:space="preserve">
<g>
	<polygon fill="#630000" points="100,0 0,0 0,100 23.9,100 50,126.1 76.1,100 100,100 	"/>
	<g>
		<polygon fill="none" stroke="#FFFFFF" stroke-width="0.5" stroke-miterlimit="10" points="24.8,98 2,98 2,2 98,2 98,98 75.2,98 
			50,123.2 		"/>
	</g>
	<path fill="#FFFFFF" d="M19.8,78.5H27l22-58.2h1.9L73,78.5h7.2v1.1h-25v-1.1h9l-8.5-22.6H36.8l-8.5,22.6h9v1.1H19.8V78.5z
		 M55.2,54.8l-8.9-23.7l-8.9,23.7H55.2z"/>
</g>
</svg>
