<?xml version="1.0" encoding="utf-8"?>
<!-- Generator: Adobe Illustrator 18.1.1, SVG Export Plug-In . SVG Version: 6.00 Build 0)  -->
<!DOCTYPE svg PUBLIC "-//W3C//DTD SVG 1.1//EN" "http://www.w3.org/Graphics/SVG/1.1/DTD/svg11.dtd">
<svg version="1.1" id="Layer_1" xmlns="http://www.w3.org/2000/svg" xmlns:xlink="http://www.w3.org/1999/xlink" x="0px" y="0px"
	 width="306.7px" height="40.2px" viewBox="0 0 306.7 40.2" enable-background="new 0 0 306.7 40.2" xml:space="preserve">
<g>
	<path d="M0,38.6h4.7L19.3,0h1.3l14.7,38.6h4.8v0.8H23.5v-0.8h6l-5.7-15H11.3l-5.7,15h6v0.8H0V38.6z M23.5,22.9L17.5,7.2l-5.9,15.7
		H23.5z"/>
	<path d="M47,38.6h6V1.7h-6V1h17.4v0.8h-6v36.9H68c6.3,0,9.8-4.3,11.4-11.1H80v11.8H47V38.6z"/>
	<path d="M89.2,38.6h6V1.7h-6V1h12.1l10,29h0.1l10-29h11.9v0.8h-6v36.9h6v0.8h-17.4v-0.8h6V2h-0.1l-12.9,37.4l-12.8-37h-0.1v36.2h6
		v0.8H89.2V38.6z"/>
	<path d="M140,38.6h4.7L159.3,0h1.3l14.7,38.6h4.8v0.8h-16.6v-0.8h6l-5.7-15h-12.5l-5.7,15h6v0.8H140V38.6z M163.5,22.9l-5.9-15.7
		l-5.9,15.7H163.5z"/>
	<path d="M186.6,38.6h6V1.7h-6V1h11.5l18.2,29.4h0.1V1.7h-6V1h12.8v0.8h-6v38.4h-1.1L193.5,3.9h-0.1v34.7h6v0.8h-12.8V38.6z"/>
	<path d="M226.7,38.6h4.7L246,0h1.3L262,38.6h4.8v0.8h-16.6v-0.8h6l-5.7-15H238l-5.7,15h6v0.8h-11.6V38.6z M250.2,22.9l-5.9-15.7
		l-5.9,15.7H250.2z"/>
	<path d="M274.7,20.3c0-10.8,8.2-20.3,19.3-20.3c4.5,0,6.7,2.1,8.8,2.1c1.4,0,1.9-0.5,2.4-1.1h0.8v10.8h-0.6
		c-1.3-5.5-3.7-11-11.9-11c-11.5,0-12.6,11.4-12.6,19.5c0,15.2,5.1,19.1,12.6,19.1c9.6,0,11.2-6,12.7-11.5h0.6v11.5h-0.8
		c-0.5-0.5-1-1.1-2.4-1.1c-2.1,0-5,1.9-10,1.9c-4.5,0-8.9-1.6-12.7-5.3C277.4,31.4,274.7,26.6,274.7,20.3z"/>
</g>
</svg>
