<?xml version="1.0" encoding="utf-8"?>
<!-- Generator: Adobe Illustrator 18.1.1, SVG Export Plug-In . SVG Version: 6.00 Build 0)  -->
<!DOCTYPE svg PUBLIC "-//W3C//DTD SVG 1.1//EN" "http://www.w3.org/Graphics/SVG/1.1/DTD/svg11.dtd">
<svg version="1.1" id="Layer_1" xmlns="http://www.w3.org/2000/svg" xmlns:xlink="http://www.w3.org/1999/xlink" x="0px" y="0px"
	 width="800px" height="800px" viewBox="0 0 800 800" enable-background="new 0 0 800 800" xml:space="preserve">
<g>
	
		<image overflow="visible" opacity="0.75" width="843" height="843" xlink:href="98F544D461EB5894.png"  transform="matrix(1 0 0 1 -21.4676 -21.6758)">
	</image>
	<g>
		<g>
			<g>
				<path fill="#FFFFFF" d="M400,800C179.5,800,0,620.6,0,400C0,179.4,179.5,0,400,0c220.6,0,400,179.4,400,400
					C800,620.6,620.6,800,400,800z M400,22.5C191.9,22.5,22.5,191.9,22.5,400S191.9,777.5,400,777.5S777.5,608.1,777.5,400
					S608.1,22.5,400,22.5z"/>
			</g>
			<g>
				<path fill="#FFFFFF" d="M298,638.8c-2.9,0-5.8-1.1-8-3.3c-4.4-4.4-4.4-11.5,0-15.9l217.4-217.4L300.6,195.3
					c-4.4-4.4-4.4-11.5,0-15.9c4.4-4.4,11.5-4.4,15.9,0l222.8,222.8L305.9,635.5C303.7,637.7,300.9,638.8,298,638.8z"/>
			</g>
		</g>
	</g>
</g>
</svg>
