<?xml version="1.0" encoding="utf-8"?>
<!-- Generator: Adobe Illustrator 18.1.1, SVG Export Plug-In . SVG Version: 6.00 Build 0)  -->
<!DOCTYPE svg PUBLIC "-//W3C//DTD SVG 1.1//EN" "http://www.w3.org/Graphics/SVG/1.1/DTD/svg11.dtd">
<svg version="1.1" id="Layer_1" xmlns="http://www.w3.org/2000/svg" xmlns:xlink="http://www.w3.org/1999/xlink" x="0px" y="0px"
	 width="1600px" height="1600px" viewBox="0 0 1600 1600" enable-background="new 0 0 1600 1600" xml:space="preserve">
<g>
	
		<image overflow="visible" opacity="0.75" width="1643" height="1643" xlink:href="9FFAA5FF503D5975.png"  transform="matrix(1 0 0 1 -21.5546 -21.5898)">
	</image>
	<g>
		<g>
			<g>
				<path fill="#FFFFFF" d="M0,800C0,358.9,358.9,0,800,0c441.1,0,800,358.9,800,800c0,441.1-358.9,800-800,800
					C358.9,1600,0,1241.1,0,800z M45.1,800c0,416.3,338.7,754.9,754.9,754.9s754.9-338.7,754.9-754.9S1216.3,45.1,800,45.1
					S45.1,383.7,45.1,800z"/>
			</g>
			<g>
				<path fill="#FFFFFF" d="M1004.1,1277.6c5.8,0,11.5-2.2,15.9-6.6c8.8-8.8,8.8-23.1,0-31.9L585.2,804.3l413.7-413.7
					c8.8-8.8,8.8-23.1,0-31.9s-23.1-8.8-31.9,0L521.5,804.3L988.1,1271C992.5,1275.4,998.3,1277.6,1004.1,1277.6z"/>
			</g>
		</g>
	</g>
</g>
</svg>
