<?xml version="1.0" encoding="utf-8"?>
<!-- Generator: Adobe Illustrator 18.1.1, SVG Export Plug-In . SVG Version: 6.00 Build 0)  -->
<!DOCTYPE svg PUBLIC "-//W3C//DTD SVG 1.1//EN" "http://www.w3.org/Graphics/SVG/1.1/DTD/svg11.dtd">
<svg version="1.1" id="Layer_1" xmlns="http://www.w3.org/2000/svg" xmlns:xlink="http://www.w3.org/1999/xlink" x="0px" y="0px"
	 width="1237px" height="71.2px" viewBox="0 0 1237 71.2" enable-background="new 0 0 1237 71.2" xml:space="preserve">
<g>
	<line fill="none" stroke="#000000" stroke-miterlimit="10" x1="1237" y1="64.3" x2="691" y2="64.3"/>
	<line fill="none" stroke="#000000" stroke-miterlimit="10" x1="548" y1="64.3" x2="0" y2="64.3"/>
	<g>
		<g id="last_quarter_193_">
			<path id="last_quarter_194_" fill="#630000" d="M582.3,58.3c-3.6,0-6.5,2.9-6.5,6.5c0,3.6,2.9,6.5,6.5,6.5s6.5-2.9,6.5-6.5
				C588.8,61.2,585.9,58.3,582.3,58.3z M576.8,64.8c0-3.1,2.4-5.7,5.6-5.7v11.4C579.2,70.5,576.8,67.9,576.8,64.8z"/>
		</g>
		<g id="waning_gibbous_191_">
			<path id="waning_gibbous_192_" fill="#630000" d="M564,58.3c-3.3,0-6.1,2.6-6.4,5.8c0,0.2,0,0.4,0,0.7c0,0.2,0,0.4,0,0.7
				c0.3,3.3,3.1,5.8,6.4,5.8c0.2,0,0.5,0,0.7,0c0,0,0.1,0,0.1,0c0.2,0,0.4-0.1,0.6-0.1c0,0,0,0,0,0c2.4-0.5,4.3-2.5,4.9-4.9
				c0,0,0,0,0,0c0-0.2,0.1-0.4,0.1-0.6c0,0,0-0.1,0-0.1c0-0.2,0-0.5,0-0.7C570.4,61.2,567.5,58.3,564,58.3z M566.4,67.2
				c0,0.1-0.1,0.3-0.1,0.4c0,0.1-0.1,0.2-0.1,0.4c0,0,0,0,0,0v0l0,0c0,0,0,0,0,0c0,0.1-0.1,0.3-0.1,0.4c0,0,0,0,0,0
				c-0.1,0.1-0.1,0.3-0.2,0.4c0,0.1-0.1,0.2-0.1,0.3c-0.1,0.1-0.1,0.2-0.2,0.3l0,0c-0.4,0.7-1,1.1-1.6,1.1c-3.1,0-5.6-2.6-5.6-5.7
				c0-3.1,2.5-5.7,5.6-5.7c0.6,0,1.2,0.4,1.6,1.2c0,0,0,0,0,0c0.3,0.5,0.6,1.3,0.8,2.1c0,0,0,0,0,0c0.2,0.7,0.3,1.6,0.3,2.5
				C566.6,65.7,566.5,66.5,566.4,67.2z"/>
		</g>
		<g id="last_quarter_191_">
			<path id="last_quarter_192_" fill="#630000" d="M649.2,64.7c0,3.6,2.9,6.5,6.5,6.5c3.6,0,6.5-2.9,6.5-6.5s-2.9-6.5-6.5-6.5
				C652.1,58.3,649.2,61.2,649.2,64.7z M655.7,70.4V59c3.1,0,5.5,2.6,5.5,5.7C661.2,67.9,658.8,70.4,655.7,70.4z"/>
		</g>
		<g id="waning_gibbous_189_">
			<path id="waning_gibbous_190_" fill="#630000" d="M667.6,64.7c0,0.2,0,0.5,0,0.7c0,0,0,0.1,0,0.1c0,0.2,0.1,0.4,0.1,0.6
				c0,0,0,0,0,0c0.5,2.4,2.5,4.3,4.9,4.9c0,0,0,0,0,0c0.2,0,0.4,0.1,0.6,0.1c0,0,0.1,0,0.1,0c0.2,0,0.5,0,0.7,0
				c3.3,0,6.1-2.6,6.4-5.8c0-0.2,0-0.4,0-0.7c0-0.2,0-0.4,0-0.7c-0.3-3.3-3.1-5.8-6.4-5.8C670.5,58.3,667.6,61.2,667.6,64.7z
				 M671.4,64.7c0-0.9,0.1-1.7,0.3-2.5c0,0,0,0,0,0c0.2-0.8,0.4-1.5,0.8-2.1v0c0.4-0.7,1.1-1.2,1.6-1.2c3.1,0,5.6,2.6,5.6,5.7
				c0,3.1-2.5,5.7-5.6,5.7c-0.6,0-1.2-0.4-1.6-1.1c0,0,0,0,0,0c-0.1-0.1-0.1-0.2-0.2-0.3c0-0.1-0.1-0.2-0.1-0.3
				c-0.1-0.1-0.1-0.3-0.2-0.4c0,0,0,0,0,0c-0.1-0.1-0.1-0.3-0.1-0.4c0,0,0,0,0,0l0,0v0c0,0,0,0,0,0c0-0.1-0.1-0.2-0.1-0.4
				c0-0.1-0.1-0.3-0.1-0.4C671.5,66.4,671.4,65.6,671.4,64.7z"/>
		</g>
		<g id="new_Moon_121_">
			<path id="new_Moon_122_" fill="#630000" d="M619,58.3c3.6,0,6.5,2.9,6.5,6.5s-2.9,6.5-6.5,6.5c-3.6,0-6.5-2.9-6.5-6.5
				S615.4,58.3,619,58.3z"/>
		</g>
		<g id="waxing_crescent_87_">
			<path id="waxing_crescent_88_" fill="#630000" d="M594.2,64.8c0,0.2,0,0.5,0,0.7c0,0,0,0.1,0,0.1c0,0.2,0.1,0.4,0.1,0.6
				c0,0,0,0,0,0c0.5,2.4,2.5,4.3,4.9,4.9c0,0,0,0,0,0c0.2,0,0.4,0.1,0.6,0.1c0,0,0.1,0,0.1,0c0.2,0,0.5,0,0.7,0
				c3.3,0,6.1-2.6,6.4-5.8c0-0.2,0-0.4,0-0.7c0-0.2,0-0.4,0-0.7c-0.3-3.3-3.1-5.8-6.4-5.8C597.1,58.3,594.2,61.2,594.2,64.8z
				 M595.1,64.8c0-3.1,2.4-5.7,5.6-5.7c-0.6,0-1,0.4-1.4,1.2c0,0,0,0,0,0c-0.3,0.5-0.6,1.3-0.8,2.1c0,0,0,0,0,0
				c-0.2,0.7-0.3,1.6-0.3,2.5c0,0.9,0.1,1.7,0.3,2.5c0,0.1,0.1,0.3,0.1,0.4c0,0.1,0.1,0.2,0.1,0.4c0,0,0,0,0,0v0l0,0c0,0,0,0,0,0
				c0,0.1,0.1,0.3,0.1,0.4c0,0,0,0,0,0c0.1,0.1,0.1,0.3,0.2,0.4c0,0,0.1,0,0,0c0,0.1,0.1,0.2,0.1,0.3c0.1,0.1,0.1,0.2,0.2,0.3
				c0,0,0,0,0,0c0.4,0.7,0.8,1.1,1.4,1.1c-0.2,0-0.3,0-0.5,0c0,0-0.1,0-0.1,0c-0.2,0-0.3,0-0.5-0.1c0,0-0.1,0-0.1,0
				c-0.2,0-0.3-0.1-0.5-0.1c0,0-0.1,0-0.1,0c-0.2-0.1-0.3-0.1-0.5-0.2c-1.2-0.6-2.1-1.5-2.7-2.7c-0.1-0.2-0.1-0.3-0.2-0.5
				c0,0,0-0.1,0-0.1c-0.1-0.2-0.1-0.3-0.1-0.5c0,0,0-0.1,0-0.1c0-0.2-0.1-0.3-0.1-0.5c0,0,0-0.1,0-0.1
				C595.1,65.2,595.1,65,595.1,64.8z"/>
		</g>
		<g id="waxing_crescent_85_">
			<path id="waxing_crescent_86_" fill="#630000" d="M637.3,58.3c-3.3,0-6.1,2.6-6.4,5.8c0,0.2,0,0.4,0,0.7c0,0.2,0,0.4,0,0.7
				c0.3,3.3,3.1,5.8,6.4,5.8c0.2,0,0.5,0,0.7,0c0,0,0.1,0,0.1,0c0.2,0,0.4-0.1,0.6-0.1c0,0,0,0,0,0c2.4-0.5,4.3-2.5,4.9-4.9
				c0,0,0,0,0,0c0-0.2,0.1-0.4,0.1-0.6c0,0,0-0.1,0-0.1c0-0.2,0-0.5,0-0.7C643.8,61.2,640.9,58.3,637.3,58.3z M642.9,65.4
				c0,0,0,0.1,0,0.1c0,0.2,0,0.3-0.1,0.5c0,0,0,0.1,0,0.1c0,0.2-0.1,0.3-0.1,0.5c0,0,0,0.1,0,0.1c-0.1,0.2-0.1,0.3-0.2,0.5
				c-0.6,1.2-1.5,2.1-2.7,2.7c-0.2,0.1-0.3,0.1-0.5,0.2c0,0-0.1,0-0.1,0c-0.2,0.1-0.3,0.1-0.5,0.1c0,0-0.1,0-0.1,0
				c-0.2,0-0.3,0.1-0.5,0.1c0,0-0.1,0-0.1,0c-0.2,0-0.3,0-0.5,0c0.6,0,0.9-0.4,1.4-1.1v0c0.1-0.1,0.1-0.2,0.2-0.3
				c0-0.1,0.1-0.2,0.1-0.3c-0.1,0,0,0,0,0c0.1-0.1,0.1-0.3,0.2-0.4c0,0,0,0,0,0c0.1-0.1,0.1-0.3,0.1-0.4c0,0,0,0,0,0c0,0,0,0,0,0v0
				c0,0,0,0,0,0c0-0.1,0.1-0.2,0.1-0.4c0-0.1,0.1-0.3,0.1-0.4c0.2-0.7,0.3-1.6,0.3-2.5c0-0.9-0.1-1.7-0.3-2.5c0,0,0,0,0,0
				c-0.2-0.8-0.4-1.5-0.8-2.1v0c-0.4-0.7-0.8-1.2-1.4-1.2c3.1,0,5.6,2.6,5.6,5.7C642.9,65,642.9,65.2,642.9,65.4z"/>
		</g>
	</g>
</g>
<g>
	<path d="M463.7,38.6h4.7L483,0h1.3L499,38.6h4.8v0.8h-16.6v-0.8h6l-5.7-15H475l-5.7,15h6v0.8h-11.6V38.6z M487.2,22.9l-5.9-15.7
		l-5.9,15.7H487.2z"/>
	<path d="M510.7,38.6h6V1.7h-6V1h17.4v0.8h-6v36.9h9.6c6.3,0,9.8-4.3,11.4-11.1h0.6v11.8h-33V38.6z"/>
	<path d="M552.8,38.6h6V1.7h-6V1H565l10,29h0.1l10-29H597v0.8h-6v36.9h6v0.8h-17.4v-0.8h6V2h-0.1l-12.9,37.4l-12.8-37h-0.1v36.2h6
		v0.8h-12.8V38.6z"/>
	<path d="M603.7,38.6h4.7L623,0h1.3L639,38.6h4.8v0.8h-16.6v-0.8h6l-5.7-15H615l-5.7,15h6v0.8h-11.6V38.6z M627.2,22.9l-5.9-15.7
		l-5.9,15.7H627.2z"/>
	<path d="M650.3,38.6h6V1.7h-6V1h11.5L680,30.4h0.1V1.7h-6V1h12.8v0.8h-6v38.4h-1.1L657.2,3.9H657v34.7h6v0.8h-12.8V38.6z"/>
	<path d="M690.4,38.6h4.7L709.7,0h1.3l14.7,38.6h4.8v0.8h-16.6v-0.8h6l-5.7-15h-12.5l-5.7,15h6v0.8h-11.6V38.6z M713.9,22.9L708,7.2
		L702,22.9H713.9z"/>
	<path d="M738.4,20.3c0-10.8,8.2-20.3,19.3-20.3c4.5,0,6.7,2.1,8.8,2.1c1.4,0,1.9-0.5,2.4-1.1h0.8v10.8h-0.6
		c-1.3-5.5-3.7-11-11.9-11c-11.5,0-12.6,11.4-12.6,19.5c0,15.2,5.1,19.1,12.6,19.1c9.6,0,11.2-6,12.7-11.5h0.6v11.5h-0.8
		c-0.5-0.5-1-1.1-2.4-1.1c-2.1,0-5,1.9-10,1.9c-4.5,0-8.9-1.6-12.7-5.3C741.1,31.4,738.4,26.6,738.4,20.3z"/>
</g>
</svg>
