<?xml version="1.0" encoding="utf-8"?>
<!-- Generator: Adobe Illustrator 18.1.1, SVG Export Plug-In . SVG Version: 6.00 Build 0)  -->
<!DOCTYPE svg PUBLIC "-//W3C//DTD SVG 1.1//EN" "http://www.w3.org/Graphics/SVG/1.1/DTD/svg11.dtd">
<svg version="1.1" id="Layer_1" xmlns="http://www.w3.org/2000/svg" xmlns:xlink="http://www.w3.org/1999/xlink" x="0px" y="0px"
	 width="306.7px" height="71.2px" viewBox="0 0 306.7 71.2" enable-background="new 0 0 306.7 71.2" xml:space="preserve">
<g>
	<g>
		<g id="last_quarter_253_">
			<path id="last_quarter_254_" fill="#630000" d="M118.6,58.3c-3.6,0-6.5,2.9-6.5,6.5c0,3.6,2.9,6.5,6.5,6.5s6.5-2.9,6.5-6.5
				C125.1,61.2,122.2,58.3,118.6,58.3z M113.1,64.8c0-3.1,2.4-5.7,5.5-5.7v11.4C115.5,70.5,113.1,67.9,113.1,64.8z"/>
		</g>
		<g id="waning_gibbous_229_">
			<path id="waning_gibbous_230_" fill="#630000" d="M100.3,58.3c-3.3,0-6.1,2.6-6.4,5.8c0,0.2,0,0.4,0,0.7c0,0.2,0,0.4,0,0.7
				c0.3,3.3,3.1,5.8,6.4,5.8c0.2,0,0.5,0,0.7,0c0,0,0.1,0,0.1,0c0.2,0,0.4-0.1,0.6-0.1c0,0,0,0,0,0c2.4-0.5,4.3-2.5,4.9-4.9
				c0,0,0,0,0,0c0-0.2,0.1-0.4,0.1-0.6c0,0,0-0.1,0-0.1c0-0.2,0-0.5,0-0.7C106.7,61.2,103.8,58.3,100.3,58.3z M102.7,67.2
				c0,0.1-0.1,0.3-0.1,0.4c0,0.1-0.1,0.2-0.1,0.4c0,0,0,0,0,0v0c0,0,0,0,0,0c0,0,0,0,0,0c0,0.1-0.1,0.3-0.1,0.4c0,0,0,0,0,0
				c-0.1,0.1-0.1,0.3-0.2,0.4c0,0.1-0.1,0.2-0.1,0.3c-0.1,0.1-0.1,0.2-0.2,0.3c0,0,0,0,0,0c-0.4,0.7-1,1.1-1.6,1.1
				c-3.1,0-5.6-2.6-5.6-5.7c0-3.1,2.5-5.7,5.6-5.7c0.6,0,1.2,0.4,1.6,1.2c0,0,0,0,0,0c0.3,0.5,0.6,1.3,0.8,2.1c0,0,0,0,0,0
				c0.2,0.7,0.3,1.6,0.3,2.5C102.9,65.7,102.8,66.5,102.7,67.2z"/>
		</g>
		<g id="last_quarter_251_">
			<path id="last_quarter_252_" fill="#630000" d="M185.5,64.7c0,3.6,2.9,6.5,6.5,6.5c3.6,0,6.5-2.9,6.5-6.5c0-3.6-2.9-6.5-6.5-6.5
				C188.4,58.3,185.5,61.2,185.5,64.7z M192,70.4V59c3.1,0,5.5,2.6,5.5,5.7C197.5,67.9,195.1,70.4,192,70.4z"/>
		</g>
		<g id="waning_gibbous_227_">
			<path id="waning_gibbous_228_" fill="#630000" d="M203.9,64.7c0,0.2,0,0.5,0,0.7c0,0,0,0.1,0,0.1c0,0.2,0.1,0.4,0.1,0.6
				c0,0,0,0,0,0c0.5,2.4,2.5,4.3,4.9,4.9c0,0,0,0,0,0c0.2,0,0.4,0.1,0.6,0.1c0,0,0.1,0,0.1,0c0.2,0,0.5,0,0.7,0
				c3.3,0,6.1-2.6,6.4-5.8c0-0.2,0-0.4,0-0.7c0-0.2,0-0.4,0-0.7c-0.3-3.3-3.1-5.8-6.4-5.8C206.8,58.3,203.9,61.2,203.9,64.7z
				 M207.7,64.7c0-0.9,0.1-1.7,0.3-2.5c0,0,0,0,0,0c0.2-0.8,0.4-1.5,0.8-2.1l0,0c0.4-0.7,1.1-1.2,1.6-1.2c3.1,0,5.6,2.6,5.6,5.7
				c0,3.1-2.5,5.7-5.6,5.7c-0.6,0-1.2-0.4-1.6-1.1c0,0,0,0,0,0c-0.1-0.1-0.1-0.2-0.2-0.3c0-0.1-0.1-0.2-0.1-0.3
				c-0.1-0.1-0.1-0.3-0.2-0.4c0,0,0,0,0,0c-0.1-0.1-0.1-0.3-0.1-0.4c0,0,0,0,0,0l0,0l0,0c0,0,0,0,0,0c0-0.1-0.1-0.2-0.1-0.4
				c0-0.1-0.1-0.3-0.1-0.4C207.8,66.4,207.7,65.6,207.7,64.7z"/>
		</g>
		<g id="new_Moon_145_">
			<path id="new_Moon_146_" fill="#630000" d="M155.3,58.3c3.6,0,6.5,2.9,6.5,6.5c0,3.6-2.9,6.5-6.5,6.5c-3.6,0-6.5-2.9-6.5-6.5
				C148.8,61.2,151.7,58.3,155.3,58.3z"/>
		</g>
		<g id="waxing_crescent_107_">
			<path id="waxing_crescent_108_" fill="#630000" d="M130.5,64.8c0,0.2,0,0.5,0,0.7c0,0,0,0.1,0,0.1c0,0.2,0.1,0.4,0.1,0.6
				c0,0,0,0,0,0c0.5,2.4,2.5,4.3,4.9,4.9c0,0,0,0,0,0c0.2,0,0.4,0.1,0.6,0.1c0,0,0.1,0,0.1,0c0.2,0,0.5,0,0.7,0
				c3.3,0,6.1-2.6,6.4-5.8c0-0.2,0-0.4,0-0.7s0-0.4,0-0.7c-0.3-3.3-3.1-5.8-6.4-5.8C133.4,58.3,130.5,61.2,130.5,64.8z M131.4,64.8
				c0-3.1,2.4-5.7,5.6-5.7c-0.6,0-1,0.4-1.4,1.2c0,0,0,0,0,0c-0.3,0.5-0.6,1.3-0.8,2.1c0,0,0,0,0,0c-0.2,0.7-0.3,1.6-0.3,2.5
				c0,0.9,0.1,1.7,0.3,2.5c0,0.1,0.1,0.3,0.1,0.4c0,0.1,0.1,0.2,0.1,0.4c0,0,0,0,0,0v0c0,0,0,0,0,0c0,0,0,0,0,0
				c0,0.1,0.1,0.3,0.1,0.4c0,0,0,0,0,0c0.1,0.1,0.1,0.3,0.2,0.4c0,0,0.1,0,0,0c0,0.1,0.1,0.2,0.1,0.3c0.1,0.1,0.1,0.2,0.2,0.3
				c0,0,0,0,0,0c0.4,0.7,0.8,1.1,1.4,1.1c-0.2,0-0.3,0-0.5,0c0,0-0.1,0-0.1,0c-0.2,0-0.3,0-0.5-0.1c0,0-0.1,0-0.1,0
				c-0.2,0-0.3-0.1-0.5-0.1c0,0-0.1,0-0.1,0c-0.2-0.1-0.3-0.1-0.5-0.2c-1.2-0.6-2.1-1.5-2.7-2.7c-0.1-0.2-0.1-0.3-0.2-0.5
				c0,0,0-0.1,0-0.1c-0.1-0.2-0.1-0.3-0.1-0.5c0,0,0-0.1,0-0.1c0-0.2-0.1-0.3-0.1-0.5c0,0,0-0.1,0-0.1
				C131.4,65.2,131.4,65,131.4,64.8z"/>
		</g>
		<g id="waxing_crescent_105_">
			<path id="waxing_crescent_106_" fill="#630000" d="M173.7,58.3c-3.3,0-6.1,2.6-6.4,5.8c0,0.2,0,0.4,0,0.7s0,0.4,0,0.7
				c0.3,3.3,3.1,5.8,6.4,5.8c0.2,0,0.5,0,0.7,0c0,0,0.1,0,0.1,0c0.2,0,0.4-0.1,0.6-0.1c0,0,0,0,0,0c2.4-0.5,4.3-2.5,4.9-4.9
				c0,0,0,0,0,0c0-0.2,0.1-0.4,0.1-0.6c0,0,0-0.1,0-0.1c0-0.2,0-0.5,0-0.7C180.1,61.2,177.2,58.3,173.7,58.3z M179.2,65.4
				c0,0,0,0.1,0,0.1c0,0.2,0,0.3-0.1,0.5c0,0,0,0.1,0,0.1c0,0.2-0.1,0.3-0.1,0.5c0,0,0,0.1,0,0.1c-0.1,0.2-0.1,0.3-0.2,0.5
				c-0.6,1.2-1.5,2.1-2.7,2.7c-0.2,0.1-0.3,0.1-0.5,0.2c0,0-0.1,0-0.1,0c-0.2,0.1-0.3,0.1-0.5,0.1c0,0-0.1,0-0.1,0
				c-0.2,0-0.3,0.1-0.5,0.1c0,0-0.1,0-0.1,0c-0.2,0-0.3,0-0.5,0c0.6,0,0.9-0.4,1.4-1.1c0,0,0,0,0,0c0.1-0.1,0.1-0.2,0.2-0.3
				c0-0.1,0.1-0.2,0.1-0.3c-0.1,0,0,0,0,0c0.1-0.1,0.1-0.3,0.2-0.4c0,0,0,0,0,0c0.1-0.1,0.1-0.3,0.1-0.4c0,0,0,0,0,0c0,0,0,0,0,0v0
				c0,0,0,0,0,0c0-0.1,0.1-0.2,0.1-0.4c0-0.1,0.1-0.3,0.1-0.4c0.2-0.7,0.3-1.6,0.3-2.5c0-0.9-0.1-1.7-0.3-2.5c0,0,0,0,0,0
				c-0.2-0.8-0.4-1.5-0.8-2.1l0,0c-0.4-0.7-0.8-1.2-1.4-1.2c3.1,0,5.6,2.6,5.6,5.7C179.2,65,179.2,65.2,179.2,65.4z"/>
		</g>
	</g>
	<g>
		<path d="M0,38.6h4.7L19.3,0h1.3l14.7,38.6h4.8v0.8H23.5v-0.8h6l-5.7-15H11.3l-5.7,15h6v0.8H0V38.6z M23.5,22.9L17.5,7.2l-5.9,15.7
			H23.5z"/>
		<path d="M47,38.6h6V1.7h-6V1h17.4v0.8h-6v36.9H68c6.3,0,9.8-4.3,11.4-11.1H80v11.8H47V38.6z"/>
		<path d="M89.2,38.6h6V1.7h-6V1h12.1l10,29h0.1l10-29h11.9v0.8h-6v36.9h6v0.8h-17.4v-0.8h6V2h-0.1l-12.9,37.4l-12.8-37h-0.1v36.2h6
			v0.8H89.2V38.6z"/>
		<path d="M140,38.6h4.7L159.3,0h1.3l14.7,38.6h4.8v0.8h-16.6v-0.8h6l-5.7-15h-12.5l-5.7,15h6v0.8H140V38.6z M163.5,22.9l-5.9-15.7
			l-5.9,15.7H163.5z"/>
		<path d="M186.6,38.6h6V1.7h-6V1h11.5l18.2,29.4h0.1V1.7h-6V1h12.8v0.8h-6v38.4h-1.1L193.5,3.9h-0.1v34.7h6v0.8h-12.8V38.6z"/>
		<path d="M226.7,38.6h4.7L246,0h1.3L262,38.6h4.8v0.8h-16.6v-0.8h6l-5.7-15H238l-5.7,15h6v0.8h-11.6V38.6z M250.2,22.9l-5.9-15.7
			l-5.9,15.7H250.2z"/>
		<path d="M274.7,20.3c0-10.8,8.2-20.3,19.3-20.3c4.5,0,6.7,2.1,8.8,2.1c1.4,0,1.9-0.5,2.4-1.1h0.8v10.8h-0.6
			c-1.3-5.5-3.7-11-11.9-11c-11.5,0-12.6,11.4-12.6,19.5c0,15.2,5.1,19.1,12.6,19.1c9.6,0,11.2-6,12.7-11.5h0.6v11.5h-0.8
			c-0.5-0.5-1-1.1-2.4-1.1c-2.1,0-5,1.9-10,1.9c-4.5,0-8.9-1.6-12.7-5.3C277.4,31.4,274.7,26.6,274.7,20.3z"/>
	</g>
</g>
</svg>
