<?xml version="1.0" encoding="utf-8"?>
<!-- Generator: Adobe Illustrator 18.1.1, SVG Export Plug-In . SVG Version: 6.00 Build 0)  -->
<!DOCTYPE svg PUBLIC "-//W3C//DTD SVG 1.1//EN" "http://www.w3.org/Graphics/SVG/1.1/DTD/svg11.dtd">
<svg version="1.1" id="Layer_1" xmlns="http://www.w3.org/2000/svg" xmlns:xlink="http://www.w3.org/1999/xlink" x="0px" y="0px"
	 width="232.1px" height="59.2px" viewBox="0 0 232.1 59.2" enable-background="new 0 0 232.1 59.2" xml:space="preserve">
<g>
	<g>
		<g display="none">
			<g id="last_quarter_177_" display="inline">
				<path id="last_quarter_178_" d="M143.8,49.4c-2.7,0-4.9,2.2-4.9,4.9c0,2.7,2.2,4.9,4.9,4.9s4.9-2.2,4.9-4.9
					C148.7,51.6,146.5,49.4,143.8,49.4z M139.6,54.3c0-2.4,1.8-4.3,4.2-4.3v8.6C141.4,58.6,139.6,56.7,139.6,54.3z"/>
			</g>
			<g id="waning_gibbous_175_" display="inline">
				<path id="waning_gibbous_176_" d="M129.9,49.4c-2.5,0-4.6,1.9-4.9,4.4c0,0.2,0,0.3,0,0.5c0,0.2,0,0.3,0,0.5
					c0.3,2.5,2.3,4.4,4.9,4.4c0.2,0,0.4,0,0.5,0c0,0,0.1,0,0.1,0c0.1,0,0.3,0,0.4-0.1c0,0,0,0,0,0c1.8-0.4,3.3-1.9,3.7-3.7
					c0,0,0,0,0,0c0-0.1,0.1-0.3,0.1-0.4c0,0,0-0.1,0-0.1c0-0.2,0-0.3,0-0.5C134.8,51.6,132.6,49.4,129.9,49.4z M131.8,56.1
					c0,0.1,0,0.2-0.1,0.3c0,0.1,0,0.2-0.1,0.3v0l0,0l0,0c0,0,0,0,0,0c0,0.1-0.1,0.2-0.1,0.3c0,0,0,0,0,0c0,0.1-0.1,0.2-0.1,0.3
					c0,0.1-0.1,0.1-0.1,0.2c0,0.1-0.1,0.1-0.1,0.2l0,0c-0.3,0.5-0.8,0.8-1.2,0.8c-2.4,0-4.2-1.9-4.2-4.3c0-2.4,1.9-4.3,4.2-4.3
					c0.4,0,0.9,0.3,1.2,0.9l0,0c0.2,0.4,0.4,0.9,0.6,1.6c0,0,0,0,0,0c0.1,0.6,0.2,1.2,0.2,1.9C132,54.9,131.9,55.6,131.8,56.1z"/>
			</g>
			<g id="full_Moon_71_" display="inline">
				<path id="full_Moon_72_" d="M116.1,49.4c-2.7,0-4.9,2.2-4.9,4.9c0,2.7,2.2,4.9,4.9,4.9c2.7,0,4.9-2.2,4.9-4.9
					C120.9,51.6,118.8,49.4,116.1,49.4z M116.1,58.6c-2.4,0-4.3-1.9-4.3-4.3c0-2.4,1.9-4.3,4.3-4.3c2.4,0,4.3,1.9,4.3,4.3
					C120.4,56.7,118.4,58.6,116.1,58.6z"/>
			</g>
			<g id="new_Moon_111_" display="inline">
				<path id="new_Moon_112_" d="M157.7,49.4c-2.7,0-4.9,2.2-4.9,4.9c0,2.7,2.2,4.9,4.9,4.9c2.7,0,4.9-2.2,4.9-4.9
					C162.6,51.6,160.4,49.4,157.7,49.4z"/>
			</g>
			<g id="last_quarter_175_" display="inline">
				<path id="last_quarter_176_" d="M83.4,54.2c0,2.7,2.2,4.9,4.9,4.9c2.7,0,4.9-2.2,4.9-4.9c0-2.7-2.2-4.9-4.9-4.9
					C85.6,49.3,83.4,51.5,83.4,54.2z M88.3,58.6v-8.6c2.4,0,4.2,1.9,4.2,4.3C92.5,56.6,90.7,58.6,88.3,58.6z"/>
			</g>
			<g id="waning_gibbous_173_" display="inline">
				<path id="waning_gibbous_174_" d="M97.3,54.2c0,0.2,0,0.4,0,0.5c0,0,0,0.1,0,0.1c0,0.1,0,0.3,0.1,0.4c0,0,0,0,0,0
					c0.4,1.8,1.9,3.3,3.7,3.7c0,0,0,0,0,0c0.1,0,0.3,0.1,0.4,0.1c0,0,0,0,0.1,0c0.2,0,0.3,0,0.5,0c2.5,0,4.6-1.9,4.9-4.4
					c0-0.2,0-0.3,0-0.5c0-0.2,0-0.3,0-0.5c-0.2-2.5-2.3-4.4-4.9-4.4C99.5,49.3,97.3,51.5,97.3,54.2z M100.1,54.2
					c0-0.7,0.1-1.3,0.2-1.9c0,0,0,0,0,0c0.1-0.6,0.3-1.2,0.6-1.6c0,0,0,0,0,0c0.3-0.5,0.8-0.9,1.2-0.9c2.4,0,4.2,1.9,4.2,4.3
					c0,2.4-1.9,4.3-4.2,4.3c-0.4,0-0.9-0.3-1.2-0.8l0,0c0-0.1-0.1-0.1-0.1-0.2c0-0.1-0.1-0.1-0.1-0.2c0-0.1-0.1-0.2-0.1-0.3
					c0,0,0,0,0,0c0-0.1-0.1-0.2-0.1-0.3c0,0,0,0,0,0l0,0l0,0l0,0c0-0.1-0.1-0.2-0.1-0.3c0-0.1-0.1-0.2-0.1-0.3
					C100.2,55.5,100.1,54.9,100.1,54.2z"/>
			</g>
			<g id="new_Moon_109_" display="inline">
				<path id="new_Moon_110_" d="M74.4,49.3c2.7,0,4.9,2.2,4.9,4.9c0,2.7-2.2,4.9-4.9,4.9c-2.7,0-4.9-2.2-4.9-4.9
					C69.5,51.5,71.7,49.3,74.4,49.3z"/>
			</g>
		</g>
		<g display="none">
			<g id="last_quarter_173_" display="inline">
				<path id="last_quarter_174_" d="M102.2,49.4c-2.7,0-4.9,2.2-4.9,4.9c0,2.7,2.2,4.9,4.9,4.9c2.7,0,4.9-2.2,4.9-4.9
					C107.1,51.6,104.9,49.4,102.2,49.4z M98,54.3c0-2.4,1.8-4.3,4.2-4.3v8.6C99.8,58.6,98,56.7,98,54.3z"/>
			</g>
			<g id="waning_gibbous_171_" display="inline">
				<path id="waning_gibbous_172_" d="M88.3,49.4c-2.5,0-4.6,1.9-4.9,4.4c0,0.2,0,0.3,0,0.5c0,0.2,0,0.3,0,0.5
					c0.2,2.5,2.3,4.4,4.9,4.4c0.2,0,0.4,0,0.5,0c0,0,0.1,0,0.1,0c0.2,0,0.3,0,0.4-0.1c0,0,0,0,0,0c1.8-0.4,3.3-1.9,3.7-3.7
					c0,0,0,0,0,0c0-0.1,0.1-0.3,0.1-0.4c0,0,0-0.1,0-0.1c0-0.2,0-0.3,0-0.5C93.2,51.6,91,49.4,88.3,49.4z M90.1,56.1
					c0,0.1,0,0.2-0.1,0.3c0,0.1,0,0.2-0.1,0.3c0,0,0,0,0,0l0,0h0c0,0,0,0,0,0c0,0.1-0.1,0.2-0.1,0.3l0,0c0,0.1-0.1,0.2-0.1,0.3
					c0,0.1-0.1,0.1-0.1,0.2c0,0.1-0.1,0.1-0.1,0.2c0,0,0,0,0,0c-0.3,0.5-0.8,0.8-1.2,0.8c-2.4,0-4.2-1.9-4.2-4.3
					c0-2.4,1.9-4.3,4.2-4.3c0.4,0,0.9,0.3,1.2,0.9l0,0c0.2,0.4,0.4,0.9,0.6,1.6c0,0,0,0,0,0c0.1,0.6,0.2,1.2,0.2,1.9
					C90.3,54.9,90.2,55.6,90.1,56.1z"/>
			</g>
			<g id="full_Moon_69_" display="inline">
				<path id="full_Moon_70_" d="M157.7,49.4c-2.7,0-4.9,2.2-4.9,4.9c0,2.7,2.2,4.9,4.9,4.9c2.7,0,4.9-2.2,4.9-4.9
					C162.6,51.6,160.4,49.4,157.7,49.4z M157.7,58.6c-2.4,0-4.3-1.9-4.3-4.3c0-2.4,1.9-4.3,4.3-4.3s4.3,1.9,4.3,4.3
					C162,56.7,160.1,58.6,157.7,58.6z"/>
			</g>
			<g id="full_Moon_67_" display="inline">
				<path id="full_Moon_68_" d="M74.4,49.4c-2.7,0-4.9,2.2-4.9,4.9c0,2.7,2.2,4.9,4.9,4.9c2.7,0,4.9-2.2,4.9-4.9
					C79.3,51.6,77.1,49.4,74.4,49.4z M74.4,58.6c-2.4,0-4.3-1.9-4.3-4.3c0-2.4,1.9-4.3,4.3-4.3c2.4,0,4.3,1.9,4.3,4.3
					C78.7,56.7,76.8,58.6,74.4,58.6z"/>
			</g>
			<g id="last_quarter_171_" display="inline">
				<path id="last_quarter_172_" d="M125,54.2c0,2.7,2.2,4.9,4.9,4.9c2.7,0,4.9-2.2,4.9-4.9c0-2.7-2.2-4.9-4.9-4.9
					C127.2,49.3,125,51.5,125,54.2z M129.9,58.6v-8.6c2.4,0,4.2,1.9,4.2,4.3C134.1,56.6,132.3,58.6,129.9,58.6z"/>
			</g>
			<g id="waning_gibbous_169_" display="inline">
				<path id="waning_gibbous_170_" d="M138.9,54.2c0,0.2,0,0.4,0,0.5c0,0,0,0.1,0,0.1c0,0.1,0,0.3,0.1,0.4c0,0,0,0,0,0
					c0.4,1.8,1.9,3.3,3.7,3.7c0,0,0,0,0,0c0.1,0,0.3,0.1,0.4,0.1c0,0,0.1,0,0.1,0c0.2,0,0.3,0,0.5,0c2.5,0,4.6-1.9,4.9-4.4
					c0-0.2,0-0.3,0-0.5c0-0.2,0-0.3,0-0.5c-0.3-2.5-2.3-4.4-4.9-4.4C141.1,49.3,138.9,51.5,138.9,54.2z M141.8,54.2
					c0-0.7,0.1-1.3,0.2-1.9c0,0,0,0,0,0c0.1-0.6,0.3-1.2,0.6-1.6l0,0c0.3-0.5,0.8-0.9,1.2-0.9c2.4,0,4.2,1.9,4.2,4.3
					c0,2.4-1.9,4.3-4.2,4.3c-0.4,0-0.9-0.3-1.2-0.8l0,0c0-0.1-0.1-0.1-0.1-0.2c0-0.1-0.1-0.1-0.1-0.2c0-0.1-0.1-0.2-0.1-0.3
					c0,0,0,0,0,0c0-0.1-0.1-0.2-0.1-0.3c0,0,0,0,0,0l0,0v0c0,0,0,0,0,0c0-0.1,0-0.2-0.1-0.3c0-0.1-0.1-0.2-0.1-0.3
					C141.9,55.5,141.8,54.9,141.8,54.2z"/>
			</g>
			<g id="new_Moon_107_" display="inline">
				<path id="new_Moon_108_" d="M116.1,49.3c2.7,0,4.9,2.2,4.9,4.9c0,2.7-2.2,4.9-4.9,4.9c-2.7,0-4.9-2.2-4.9-4.9
					C111.2,51.5,113.4,49.3,116.1,49.3z"/>
			</g>
		</g>
		<g>
			<g id="last_quarter_169_">
				<path id="last_quarter_170_" fill="#630000" d="M88.3,49.4c-2.7,0-4.9,2.2-4.9,4.9c0,2.7,2.2,4.9,4.9,4.9c2.7,0,4.9-2.2,4.9-4.9
					C93.2,51.6,91,49.4,88.3,49.4z M84.1,54.3c0-2.4,1.8-4.3,4.2-4.3v8.6C85.9,58.6,84.1,56.7,84.1,54.3z"/>
			</g>
			<g id="waning_gibbous_159_">
				<path id="waning_gibbous_160_" fill="#630000" d="M74.4,49.4c-2.5,0-4.6,1.9-4.9,4.4c0,0.2,0,0.3,0,0.5c0,0.2,0,0.3,0,0.5
					c0.2,2.5,2.3,4.4,4.9,4.4c0.2,0,0.4,0,0.5,0c0,0,0.1,0,0.1,0c0.1,0,0.3,0,0.4-0.1c0,0,0,0,0,0c1.8-0.4,3.3-1.9,3.7-3.7
					c0,0,0,0,0,0c0-0.1,0.1-0.3,0.1-0.4c0,0,0-0.1,0-0.1c0-0.2,0-0.3,0-0.5C79.3,51.6,77.1,49.4,74.4,49.4z M76.2,56.1
					c0,0.1,0,0.2-0.1,0.3c0,0.1,0,0.2-0.1,0.3l0,0v0c0,0,0,0,0,0c0,0,0,0,0,0c0,0.1-0.1,0.2-0.1,0.3c0,0,0,0,0,0
					c0,0.1-0.1,0.2-0.1,0.3c0,0.1-0.1,0.1-0.1,0.2c0,0.1-0.1,0.1-0.1,0.2l0,0c-0.3,0.5-0.8,0.8-1.2,0.8c-2.4,0-4.2-1.9-4.2-4.3
					c0-2.4,1.9-4.3,4.2-4.3c0.4,0,0.9,0.3,1.2,0.9c0,0,0,0,0,0c0.2,0.4,0.4,0.9,0.6,1.6c0,0,0,0,0,0c0.1,0.6,0.2,1.2,0.2,1.9
					C76.4,54.9,76.4,55.6,76.2,56.1z"/>
			</g>
			<g id="last_quarter_159_">
				<path id="last_quarter_160_" fill="#630000" d="M138.9,54.2c0,2.7,2.2,4.9,4.9,4.9c2.7,0,4.9-2.2,4.9-4.9c0-2.7-2.2-4.9-4.9-4.9
					C141.1,49.3,138.9,51.5,138.9,54.2z M143.8,58.6v-8.6c2.4,0,4.2,1.9,4.2,4.3C148,56.6,146.2,58.6,143.8,58.6z"/>
			</g>
			<g id="waning_gibbous_157_">
				<path id="waning_gibbous_158_" fill="#630000" d="M152.8,54.2c0,0.2,0,0.4,0,0.5c0,0,0,0.1,0,0.1c0,0.1,0,0.3,0.1,0.4
					c0,0,0,0,0,0c0.4,1.8,1.9,3.3,3.7,3.7c0,0,0,0,0,0c0.1,0,0.3,0.1,0.4,0.1c0,0,0,0,0.1,0c0.2,0,0.3,0,0.5,0
					c2.5,0,4.6-1.9,4.9-4.4c0-0.2,0-0.3,0-0.5c0-0.2,0-0.3,0-0.5c-0.2-2.5-2.3-4.4-4.9-4.4C155,49.3,152.8,51.5,152.8,54.2z
					 M155.7,54.2c0-0.7,0.1-1.3,0.2-1.9c0,0,0,0,0,0c0.1-0.6,0.3-1.2,0.6-1.6l0,0c0.3-0.5,0.8-0.9,1.2-0.9c2.4,0,4.2,1.9,4.2,4.3
					c0,2.4-1.9,4.3-4.2,4.3c-0.4,0-0.9-0.3-1.2-0.8h0c0-0.1-0.1-0.1-0.1-0.2c0-0.1-0.1-0.1-0.1-0.2c0-0.1-0.1-0.2-0.1-0.3
					c0,0,0,0,0,0c0-0.1-0.1-0.2-0.1-0.3c0,0,0,0,0,0l0,0l0,0c0,0,0,0,0,0c0-0.1,0-0.2-0.1-0.3c0-0.1-0.1-0.2-0.1-0.3
					C155.7,55.5,155.7,54.9,155.7,54.2z"/>
			</g>
			<g id="new_Moon_99_">
				<path id="new_Moon_100_" fill="#630000" d="M116.1,49.3c2.7,0,4.9,2.2,4.9,4.9c0,2.7-2.2,4.9-4.9,4.9c-2.7,0-4.9-2.2-4.9-4.9
					C111.2,51.5,113.4,49.3,116.1,49.3z"/>
			</g>
			<g id="waxing_crescent_79_">
				<path id="waxing_crescent_80_" fill="#630000" d="M97.3,54.3c0,0.2,0,0.4,0,0.5c0,0,0,0.1,0,0.1c0,0.1,0,0.3,0.1,0.4
					c0,0,0,0,0,0c0.4,1.8,1.9,3.3,3.7,3.7c0,0,0,0,0,0c0.1,0,0.3,0.1,0.4,0.1c0,0,0,0,0.1,0c0.2,0,0.3,0,0.5,0
					c2.5,0,4.6-1.9,4.9-4.4c0-0.2,0-0.3,0-0.5c0-0.2,0-0.3,0-0.5c-0.3-2.5-2.3-4.4-4.9-4.4C99.5,49.4,97.3,51.6,97.3,54.3z M98,54.3
					c0-2.4,1.8-4.3,4.2-4.3c-0.4,0-0.8,0.3-1.1,0.9l0,0c-0.2,0.4-0.4,0.9-0.6,1.6c0,0,0,0,0,0c-0.1,0.6-0.2,1.2-0.2,1.9
					c0,0.7,0.1,1.3,0.2,1.9c0,0.1,0,0.2,0.1,0.3c0,0.1,0,0.2,0.1,0.3c0,0,0,0,0,0v0l0,0c0,0,0,0,0,0c0,0.1,0.1,0.2,0.1,0.3
					c0,0,0,0,0,0c0,0.1,0.1,0.2,0.1,0.3c0,0,0.1,0,0,0c0,0.1,0.1,0.1,0.1,0.2c0,0.1,0.1,0.1,0.1,0.2c0,0,0,0,0,0
					c0.3,0.5,0.6,0.8,1,0.8c-0.2,0-0.2,0-0.4,0c0,0-0.1,0-0.1,0c-0.1,0-0.2,0-0.4-0.1c0,0-0.1,0-0.1,0c-0.1,0-0.3-0.1-0.4-0.1
					c0,0,0,0-0.1,0c-0.1,0-0.3-0.1-0.4-0.2c-0.9-0.4-1.6-1.1-2-2c-0.1-0.1-0.1-0.2-0.2-0.4c0,0,0,0,0-0.1c0-0.1-0.1-0.2-0.1-0.4
					c0,0,0-0.1,0-0.1c0-0.1,0-0.2-0.1-0.4c0,0,0-0.1,0-0.1C98,54.6,98,54.4,98,54.3z"/>
			</g>
			<g id="waxing_crescent_77_">
				<path id="waxing_crescent_78_" fill="#630000" d="M129.9,49.4c-2.5,0-4.6,1.9-4.9,4.4c0,0.2,0,0.3,0,0.5c0,0.2,0,0.3,0,0.5
					c0.3,2.5,2.3,4.4,4.9,4.4c0.2,0,0.4,0,0.5,0c0,0,0,0,0.1,0c0.2,0,0.3,0,0.4-0.1c0,0,0,0,0,0c1.8-0.4,3.3-1.9,3.7-3.7
					c0,0,0,0,0,0c0-0.1,0.1-0.3,0.1-0.4c0,0,0-0.1,0-0.1c0-0.2,0-0.3,0-0.5C134.8,51.6,132.6,49.4,129.9,49.4z M134.1,54.7
					c0,0,0,0.1,0,0.1c0,0.1,0,0.2-0.1,0.4c0,0,0,0.1,0,0.1c0,0.1-0.1,0.2-0.1,0.4c0,0,0,0,0,0.1c0,0.1-0.1,0.3-0.2,0.4
					c-0.4,0.9-1.1,1.6-2,2c-0.1,0.1-0.2,0.1-0.4,0.2c0,0,0,0-0.1,0c-0.1,0-0.2,0.1-0.4,0.1c0,0-0.1,0-0.1,0c-0.1,0-0.2,0-0.4,0.1
					c0,0-0.1,0-0.1,0c-0.2,0-0.2,0-0.4,0c0.4,0,0.7-0.3,1-0.8c0,0,0,0,0,0c0-0.1,0.1-0.1,0.1-0.2c0-0.1,0.1-0.1,0.1-0.2
					c-0.1,0,0,0,0,0c0-0.1,0.1-0.2,0.1-0.3c0,0,0,0,0,0c0-0.1,0.1-0.2,0.1-0.3c0,0,0,0,0,0l0,0v0c0,0,0,0,0,0c0-0.1,0.1-0.2,0.1-0.3
					c0-0.1,0-0.2,0.1-0.3c0.1-0.6,0.2-1.2,0.2-1.9c0-0.7-0.1-1.3-0.2-1.9c0,0,0,0,0,0c-0.1-0.6-0.3-1.2-0.6-1.6l0,0
					c-0.3-0.5-0.6-0.9-1.1-0.9c2.4,0,4.2,1.9,4.2,4.3C134.1,54.4,134.1,54.6,134.1,54.7z"/>
			</g>
		</g>
		<rect x="0" y="54" width="60.5" height="0.6"/>
		<rect x="171.6" y="54" width="60.5" height="0.6"/>
	</g>
	<g>
		<path d="M0,29.2h3.6L14.6,0h1l11.1,29.2h3.6v0.6H17.8v-0.6h4.5L18,17.9H8.5L4.2,29.2h4.5v0.6H0V29.2z M17.8,17.3L13.3,5.4
			L8.8,17.3H17.8z"/>
		<path d="M35.6,29.2h4.5V1.3h-4.5V0.7h13.1v0.6h-4.5v27.9h7.3c4.8,0,7.4-3.2,8.6-8.4h0.4v8.9H35.6V29.2z"/>
		<path d="M67.5,29.2H72V1.3h-4.5V0.7h9.2l7.5,22h0.1l7.5-22h9v0.6h-4.5v27.9h4.5v0.6H87.7v-0.6h4.5V1.6h-0.1l-9.8,28.3l-9.7-28
			h-0.1v27.4h4.5v0.6h-9.7V29.2z"/>
		<path d="M105.9,29.2h3.6l11-29.2h1l11.1,29.2h3.6v0.6h-12.6v-0.6h4.5l-4.3-11.3h-9.5l-4.3,11.3h4.5v0.6h-8.8V29.2z M123.7,17.3
			l-4.5-11.9l-4.5,11.9H123.7z"/>
		<path d="M141.2,29.2h4.5V1.3h-4.5V0.7h8.7L163.7,23h0.1V1.3h-4.5V0.7h9.7v0.6h-4.5v29.1h-0.8L146.4,3h-0.1v26.2h4.5v0.6h-9.7V29.2
			z"/>
		<path d="M171.6,29.2h3.6l11-29.2h1l11.1,29.2h3.6v0.6h-12.6v-0.6h4.5l-4.3-11.3h-9.5l-4.3,11.3h4.5v0.6h-8.8V29.2z M189.3,17.3
			l-4.5-11.9l-4.5,11.9H189.3z"/>
		<path d="M207.9,15.3c0-8.2,6.2-15.3,14.6-15.3c3.4,0,5.1,1.6,6.7,1.6c1.1,0,1.4-0.4,1.8-0.9h0.6v8.2h-0.4c-1-4.2-2.8-8.3-9-8.3
			c-8.7,0-9.5,8.7-9.5,14.8c0,11.5,3.9,14.5,9.5,14.5c7.3,0,8.5-4.6,9.6-8.7h0.4v8.7h-0.6c-0.4-0.4-0.8-0.9-1.8-0.9
			c-1.6,0-3.8,1.5-7.5,1.5c-3.4,0-6.7-1.2-9.6-4C209.9,23.8,207.9,20.1,207.9,15.3z"/>
	</g>
</g>
</svg>
