<?xml version="1.0" encoding="utf-8"?>
<!-- Generator: Adobe Illustrator 18.1.1, SVG Export Plug-In . SVG Version: 6.00 Build 0)  -->
<!DOCTYPE svg PUBLIC "-//W3C//DTD SVG 1.1//EN" "http://www.w3.org/Graphics/SVG/1.1/DTD/svg11.dtd">
<svg version="1.1" id="Layer_1" xmlns="http://www.w3.org/2000/svg" xmlns:xlink="http://www.w3.org/1999/xlink" x="0px" y="0px"
	 width="400px" height="23px" viewBox="0 0 400 23" enable-background="new 0 0 400 23" xml:space="preserve">
<g>
	<g>
		<line fill="none" stroke="#000000" stroke-miterlimit="10" x1="400" y1="21.1" x2="223" y2="21.1"/>
		<line fill="none" stroke="#000000" stroke-miterlimit="10" x1="177" y1="21.1" x2="0" y2="21.1"/>
		<g>
			<g id="last_quarter_271_">
				<path id="last_quarter_272_" fill="#630000" d="M188.3,18.9c-1.2,0-2.1,0.9-2.1,2.1s0.9,2.1,2.1,2.1c1.2,0,2.1-0.9,2.1-2.1
					S189.5,18.9,188.3,18.9z M186.5,20.9c0-1,0.8-1.8,1.8-1.8v3.7C187.3,22.8,186.5,22,186.5,20.9z"/>
			</g>
			<g id="waning_gibbous_245_">
				<path id="waning_gibbous_246_" fill="#630000" d="M182.4,18.9c-1.1,0-2,0.8-2.1,1.9c0,0.1,0,0.1,0,0.2s0,0.1,0,0.2
					c0.1,1.1,1,1.9,2.1,1.9c0.1,0,0.2,0,0.2,0c0,0,0,0,0,0c0.1,0,0.1,0,0.2,0c0,0,0,0,0,0c0.8-0.2,1.4-0.8,1.6-1.6c0,0,0,0,0,0
					c0-0.1,0-0.1,0-0.2c0,0,0,0,0,0c0-0.1,0-0.1,0-0.2C184.5,19.8,183.6,18.9,182.4,18.9z M183.2,21.7c0,0,0,0.1,0,0.1
					c0,0,0,0.1,0,0.1c0,0,0,0,0,0v0c0,0,0,0,0,0c0,0,0,0,0,0c0,0,0,0.1,0,0.1c0,0,0,0,0,0c0,0,0,0.1-0.1,0.1c0,0,0,0.1,0,0.1
					c0,0,0,0.1-0.1,0.1c0,0,0,0,0,0c-0.1,0.2-0.3,0.3-0.5,0.3c-1,0-1.8-0.8-1.8-1.8c0-1,0.8-1.8,1.8-1.8c0.2,0,0.4,0.1,0.5,0.4
					c0,0,0,0,0,0c0.1,0.2,0.2,0.4,0.2,0.7c0,0,0,0,0,0c0.1,0.2,0.1,0.5,0.1,0.8C183.3,21.2,183.2,21.5,183.2,21.7z"/>
			</g>
			<g id="last_quarter_269_">
				<path id="last_quarter_270_" fill="#630000" d="M210,20.9c0,1.2,0.9,2.1,2.1,2.1c1.2,0,2.1-0.9,2.1-2.1c0-1.2-0.9-2.1-2.1-2.1
					C210.9,18.8,210,19.8,210,20.9z M212.1,22.8v-3.7c1,0,1.8,0.8,1.8,1.8C213.9,21.9,213.1,22.8,212.1,22.8z"/>
			</g>
			<g id="waning_gibbous_243_">
				<path id="waning_gibbous_244_" fill="#630000" d="M215.9,20.9c0,0.1,0,0.2,0,0.2c0,0,0,0,0,0c0,0.1,0,0.1,0,0.2c0,0,0,0,0,0
					c0.2,0.8,0.8,1.4,1.6,1.6c0,0,0,0,0,0c0.1,0,0.1,0,0.2,0c0,0,0,0,0,0c0.1,0,0.1,0,0.2,0c1.1,0,2-0.8,2.1-1.9c0-0.1,0-0.1,0-0.2
					c0-0.1,0-0.1,0-0.2c-0.1-1.1-1-1.9-2.1-1.9C216.8,18.8,215.9,19.8,215.9,20.9z M217.1,20.9c0-0.3,0-0.6,0.1-0.8c0,0,0,0,0,0
					c0.1-0.3,0.1-0.5,0.2-0.7l0,0c0.1-0.2,0.3-0.4,0.5-0.4c1,0,1.8,0.8,1.8,1.8c0,1-0.8,1.8-1.8,1.8c-0.2,0-0.4-0.1-0.5-0.3
					c0,0,0,0,0,0c0,0,0-0.1-0.1-0.1c0,0,0-0.1,0-0.1c0,0,0-0.1-0.1-0.1c0,0,0,0,0,0c0,0,0-0.1,0-0.1c0,0,0,0,0,0l0,0l0,0
					c0,0,0,0,0,0c0,0,0-0.1,0-0.1c0,0,0-0.1,0-0.1C217.2,21.5,217.1,21.2,217.1,20.9z"/>
			</g>
			<g id="new_Moon_155_">
				<circle id="new_Moon_156_" fill="#630000" cx="200.2" cy="20.9" r="2.1"/>
			</g>
			<g id="waxing_crescent_115_">
				<path id="waxing_crescent_116_" fill="#630000" d="M192.2,20.9c0,0.1,0,0.2,0,0.2c0,0,0,0,0,0c0,0.1,0,0.1,0,0.2c0,0,0,0,0,0
					c0.2,0.8,0.8,1.4,1.6,1.6c0,0,0,0,0,0c0.1,0,0.1,0,0.2,0c0,0,0,0,0,0c0.1,0,0.1,0,0.2,0c1.1,0,2-0.8,2.1-1.9c0-0.1,0-0.1,0-0.2
					s0-0.1,0-0.2c-0.1-1.1-1-1.9-2.1-1.9C193.1,18.8,192.2,19.8,192.2,20.9z M192.5,20.9c0-1,0.8-1.8,1.8-1.8
					c-0.2,0-0.3,0.1-0.5,0.4c0,0,0,0,0,0c-0.1,0.2-0.2,0.4-0.2,0.7c0,0,0,0,0,0c-0.1,0.2-0.1,0.5-0.1,0.8c0,0.3,0,0.6,0.1,0.8
					c0,0,0,0.1,0,0.1c0,0,0,0.1,0,0.1c0,0,0,0,0,0v0c0,0,0,0,0,0c0,0,0,0,0,0c0,0,0,0.1,0,0.1c0,0,0,0,0,0c0,0,0,0.1,0.1,0.1
					c0,0,0,0,0,0c0,0,0,0.1,0,0.1c0,0,0,0.1,0.1,0.1c0,0,0,0,0,0c0.1,0.2,0.3,0.3,0.4,0.3c-0.1,0-0.1,0-0.2,0c0,0,0,0,0,0
					c-0.1,0-0.1,0-0.2,0c0,0,0,0,0,0c-0.1,0-0.1,0-0.2,0c0,0,0,0,0,0c-0.1,0-0.1,0-0.2-0.1c-0.4-0.2-0.7-0.5-0.9-0.9
					c0-0.1,0-0.1-0.1-0.2c0,0,0,0,0,0c0-0.1,0-0.1,0-0.2c0,0,0,0,0,0c0-0.1,0-0.1,0-0.2c0,0,0,0,0,0C192.5,21.1,192.5,21,192.5,20.9
					z"/>
			</g>
			<g id="waxing_crescent_113_">
				<path id="waxing_crescent_114_" fill="#630000" d="M206.1,18.8c-1.1,0-2,0.8-2.1,1.9c0,0.1,0,0.1,0,0.2s0,0.1,0,0.2
					c0.1,1.1,1,1.9,2.1,1.9c0.1,0,0.2,0,0.2,0c0,0,0,0,0,0c0.1,0,0.1,0,0.2,0c0,0,0,0,0,0c0.8-0.2,1.4-0.8,1.6-1.6c0,0,0,0,0,0
					c0-0.1,0-0.1,0-0.2c0,0,0,0,0,0c0-0.1,0-0.1,0-0.2C208.2,19.8,207.3,18.8,206.1,18.8z M207.9,21.1
					C207.9,21.2,207.9,21.2,207.9,21.1c0,0.1,0,0.2,0,0.2c0,0,0,0,0,0c0,0.1,0,0.1,0,0.2c0,0,0,0,0,0c0,0.1,0,0.1-0.1,0.2
					c-0.2,0.4-0.5,0.7-0.9,0.9c-0.1,0-0.1,0-0.2,0.1c0,0,0,0,0,0c-0.1,0-0.1,0-0.2,0c0,0,0,0,0,0c-0.1,0-0.1,0-0.2,0c0,0,0,0,0,0
					c-0.1,0-0.1,0-0.2,0c0.2,0,0.3-0.1,0.4-0.3c0,0,0,0,0,0c0,0,0-0.1,0.1-0.1c0,0,0-0.1,0-0.1c0,0,0,0,0,0c0,0,0-0.1,0.1-0.1
					c0,0,0,0,0,0c0,0,0-0.1,0-0.1c0,0,0,0,0,0c0,0,0,0,0,0v0c0,0,0,0,0,0c0,0,0-0.1,0-0.1c0,0,0-0.1,0-0.1c0.1-0.2,0.1-0.5,0.1-0.8
					c0-0.3,0-0.6-0.1-0.8c0,0,0,0,0,0c-0.1-0.3-0.1-0.5-0.2-0.7l0,0c-0.1-0.2-0.3-0.4-0.5-0.4c1,0,1.8,0.8,1.8,1.8
					C207.9,21,207.9,21.1,207.9,21.1z"/>
			</g>
		</g>
	</g>
	<g>
		<path d="M150,12.5h1.5L156.2,0h0.4l4.7,12.5h1.6v0.2h-5.4v-0.2h1.9l-1.8-4.8h-4l-1.8,4.8h1.9v0.2H150V12.5z M157.6,7.4l-1.9-5.1
			l-1.9,5.1H157.6z"/>
		<path d="M165.2,12.5h1.9V0.6h-1.9V0.3h5.6v0.2h-1.9v11.9h3.1c2,0,3.2-1.4,3.7-3.6h0.2v3.8h-10.7V12.5z"/>
		<path d="M178.8,12.5h1.9V0.6h-1.9V0.3h3.9l3.2,9.4h0l3.2-9.4h3.9v0.2h-1.9v11.9h1.9v0.2h-5.6v-0.2h1.9V0.7h0l-4.2,12.1l-4.1-12h0
			v11.7h1.9v0.2h-4.1V12.5z"/>
		<path d="M195.3,12.5h1.5L201.5,0h0.4l4.7,12.5h1.6v0.2h-5.4v-0.2h1.9l-1.8-4.8h-4l-1.8,4.8h1.9v0.2h-3.7V12.5z M202.8,7.4
			l-1.9-5.1L199,7.4H202.8z"/>
		<path d="M210.3,12.5h1.9V0.6h-1.9V0.3h3.7l5.9,9.5h0V0.6H218V0.3h4.1v0.2h-1.9V13h-0.3l-7.3-11.7h0v11.2h1.9v0.2h-4.1V12.5z"/>
		<path d="M223.3,12.5h1.5L229.5,0h0.4l4.7,12.5h1.6v0.2h-5.4v-0.2h1.9L231,7.6h-4l-1.8,4.8h1.9v0.2h-3.7V12.5z M230.9,7.4L229,2.3
			L227,7.4H230.9z"/>
		<path d="M238.8,6.6c0-3.5,2.7-6.6,6.2-6.6c1.4,0,2.2,0.7,2.9,0.7c0.5,0,0.6-0.2,0.8-0.4h0.3v3.5h-0.2c-0.4-1.8-1.2-3.6-3.9-3.6
			c-3.7,0-4.1,3.7-4.1,6.3c0,4.9,1.7,6.2,4.1,6.2c3.1,0,3.6-2,4.1-3.7h0.2v3.7h-0.3c-0.2-0.2-0.3-0.4-0.8-0.4
			c-0.7,0-1.6,0.6-3.2,0.6c-1.5,0-2.9-0.5-4.1-1.7C239.7,10.1,238.8,8.6,238.8,6.6z"/>
	</g>
	<g>
		<line fill="none" stroke="#000000" stroke-miterlimit="10" x1="400" y1="21.1" x2="223" y2="21.1"/>
		<line fill="none" stroke="#000000" stroke-miterlimit="10" x1="177" y1="21.1" x2="0" y2="21.1"/>
		<g>
			<g id="last_quarter_253_">
				<path id="last_quarter_254_" fill="#630000" d="M188.3,18.9c-1.2,0-2.1,0.9-2.1,2.1s0.9,2.1,2.1,2.1c1.2,0,2.1-0.9,2.1-2.1
					S189.5,18.9,188.3,18.9z M186.5,20.9c0-1,0.8-1.8,1.8-1.8v3.7C187.3,22.8,186.5,22,186.5,20.9z"/>
			</g>
			<g id="waning_gibbous_229_">
				<path id="waning_gibbous_230_" fill="#630000" d="M182.4,18.9c-1.1,0-2,0.8-2.1,1.9c0,0.1,0,0.1,0,0.2s0,0.1,0,0.2
					c0.1,1.1,1,1.9,2.1,1.9c0.1,0,0.2,0,0.2,0c0,0,0,0,0,0c0.1,0,0.1,0,0.2,0c0,0,0,0,0,0c0.8-0.2,1.4-0.8,1.6-1.6c0,0,0,0,0,0
					c0-0.1,0-0.1,0-0.2c0,0,0,0,0,0c0-0.1,0-0.1,0-0.2C184.5,19.8,183.6,18.9,182.4,18.9z M183.2,21.7c0,0,0,0.1,0,0.1
					c0,0,0,0.1,0,0.1c0,0,0,0,0,0v0c0,0,0,0,0,0c0,0,0,0,0,0c0,0,0,0.1,0,0.1c0,0,0,0,0,0c0,0,0,0.1-0.1,0.1c0,0,0,0.1,0,0.1
					c0,0,0,0.1-0.1,0.1c0,0,0,0,0,0c-0.1,0.2-0.3,0.3-0.5,0.3c-1,0-1.8-0.8-1.8-1.8c0-1,0.8-1.8,1.8-1.8c0.2,0,0.4,0.1,0.5,0.4
					c0,0,0,0,0,0c0.1,0.2,0.2,0.4,0.2,0.7c0,0,0,0,0,0c0.1,0.2,0.1,0.5,0.1,0.8C183.3,21.2,183.2,21.5,183.2,21.7z"/>
			</g>
			<g id="last_quarter_251_">
				<path id="last_quarter_252_" fill="#630000" d="M210,20.9c0,1.2,0.9,2.1,2.1,2.1c1.2,0,2.1-0.9,2.1-2.1c0-1.2-0.9-2.1-2.1-2.1
					C210.9,18.8,210,19.8,210,20.9z M212.1,22.8v-3.7c1,0,1.8,0.8,1.8,1.8C213.9,21.9,213.1,22.8,212.1,22.8z"/>
			</g>
			<g id="waning_gibbous_227_">
				<path id="waning_gibbous_228_" fill="#630000" d="M215.9,20.9c0,0.1,0,0.2,0,0.2c0,0,0,0,0,0c0,0.1,0,0.1,0,0.2c0,0,0,0,0,0
					c0.2,0.8,0.8,1.4,1.6,1.6c0,0,0,0,0,0c0.1,0,0.1,0,0.2,0c0,0,0,0,0,0c0.1,0,0.1,0,0.2,0c1.1,0,2-0.8,2.1-1.9c0-0.1,0-0.1,0-0.2
					c0-0.1,0-0.1,0-0.2c-0.1-1.1-1-1.9-2.1-1.9C216.8,18.8,215.9,19.8,215.9,20.9z M217.1,20.9c0-0.3,0-0.6,0.1-0.8c0,0,0,0,0,0
					c0.1-0.3,0.1-0.5,0.2-0.7l0,0c0.1-0.2,0.3-0.4,0.5-0.4c1,0,1.8,0.8,1.8,1.8c0,1-0.8,1.8-1.8,1.8c-0.2,0-0.4-0.1-0.5-0.3
					c0,0,0,0,0,0c0,0,0-0.1-0.1-0.1c0,0,0-0.1,0-0.1c0,0,0-0.1-0.1-0.1c0,0,0,0,0,0c0,0,0-0.1,0-0.1c0,0,0,0,0,0l0,0l0,0
					c0,0,0,0,0,0c0,0,0-0.1,0-0.1c0,0,0-0.1,0-0.1C217.2,21.5,217.1,21.2,217.1,20.9z"/>
			</g>
			<g id="new_Moon_145_">
				<circle id="new_Moon_146_" fill="#630000" cx="200.2" cy="20.9" r="2.1"/>
			</g>
			<g id="waxing_crescent_107_">
				<path id="waxing_crescent_108_" fill="#630000" d="M192.2,20.9c0,0.1,0,0.2,0,0.2c0,0,0,0,0,0c0,0.1,0,0.1,0,0.2c0,0,0,0,0,0
					c0.2,0.8,0.8,1.4,1.6,1.6c0,0,0,0,0,0c0.1,0,0.1,0,0.2,0c0,0,0,0,0,0c0.1,0,0.1,0,0.2,0c1.1,0,2-0.8,2.1-1.9c0-0.1,0-0.1,0-0.2
					s0-0.1,0-0.2c-0.1-1.1-1-1.9-2.1-1.9C193.1,18.8,192.2,19.8,192.2,20.9z M192.5,20.9c0-1,0.8-1.8,1.8-1.8
					c-0.2,0-0.3,0.1-0.5,0.4c0,0,0,0,0,0c-0.1,0.2-0.2,0.4-0.2,0.7c0,0,0,0,0,0c-0.1,0.2-0.1,0.5-0.1,0.8c0,0.3,0,0.6,0.1,0.8
					c0,0,0,0.1,0,0.1c0,0,0,0.1,0,0.1c0,0,0,0,0,0v0c0,0,0,0,0,0c0,0,0,0,0,0c0,0,0,0.1,0,0.1c0,0,0,0,0,0c0,0,0,0.1,0.1,0.1
					c0,0,0,0,0,0c0,0,0,0.1,0,0.1c0,0,0,0.1,0.1,0.1c0,0,0,0,0,0c0.1,0.2,0.3,0.3,0.4,0.3c-0.1,0-0.1,0-0.2,0c0,0,0,0,0,0
					c-0.1,0-0.1,0-0.2,0c0,0,0,0,0,0c-0.1,0-0.1,0-0.2,0c0,0,0,0,0,0c-0.1,0-0.1,0-0.2-0.1c-0.4-0.2-0.7-0.5-0.9-0.9
					c0-0.1,0-0.1-0.1-0.2c0,0,0,0,0,0c0-0.1,0-0.1,0-0.2c0,0,0,0,0,0c0-0.1,0-0.1,0-0.2c0,0,0,0,0,0C192.5,21.1,192.5,21,192.5,20.9
					z"/>
			</g>
			<g id="waxing_crescent_105_">
				<path id="waxing_crescent_106_" fill="#630000" d="M206.1,18.8c-1.1,0-2,0.8-2.1,1.9c0,0.1,0,0.1,0,0.2s0,0.1,0,0.2
					c0.1,1.1,1,1.9,2.1,1.9c0.1,0,0.2,0,0.2,0c0,0,0,0,0,0c0.1,0,0.1,0,0.2,0c0,0,0,0,0,0c0.8-0.2,1.4-0.8,1.6-1.6c0,0,0,0,0,0
					c0-0.1,0-0.1,0-0.2c0,0,0,0,0,0c0-0.1,0-0.1,0-0.2C208.2,19.8,207.3,18.8,206.1,18.8z M207.9,21.1
					C207.9,21.2,207.9,21.2,207.9,21.1c0,0.1,0,0.2,0,0.2c0,0,0,0,0,0c0,0.1,0,0.1,0,0.2c0,0,0,0,0,0c0,0.1,0,0.1-0.1,0.2
					c-0.2,0.4-0.5,0.7-0.9,0.9c-0.1,0-0.1,0-0.2,0.1c0,0,0,0,0,0c-0.1,0-0.1,0-0.2,0c0,0,0,0,0,0c-0.1,0-0.1,0-0.2,0c0,0,0,0,0,0
					c-0.1,0-0.1,0-0.2,0c0.2,0,0.3-0.1,0.4-0.3c0,0,0,0,0,0c0,0,0-0.1,0.1-0.1c0,0,0-0.1,0-0.1c0,0,0,0,0,0c0,0,0-0.1,0.1-0.1
					c0,0,0,0,0,0c0,0,0-0.1,0-0.1c0,0,0,0,0,0c0,0,0,0,0,0v0c0,0,0,0,0,0c0,0,0-0.1,0-0.1c0,0,0-0.1,0-0.1c0.1-0.2,0.1-0.5,0.1-0.8
					c0-0.3,0-0.6-0.1-0.8c0,0,0,0,0,0c-0.1-0.3-0.1-0.5-0.2-0.7l0,0c-0.1-0.2-0.3-0.4-0.5-0.4c1,0,1.8,0.8,1.8,1.8
					C207.9,21,207.9,21.1,207.9,21.1z"/>
			</g>
		</g>
	</g>
	<g>
		<path d="M150,12.5h1.5L156.2,0h0.4l4.7,12.5h1.6v0.2h-5.4v-0.2h1.9l-1.8-4.8h-4l-1.8,4.8h1.9v0.2H150V12.5z M157.6,7.4l-1.9-5.1
			l-1.9,5.1H157.6z"/>
		<path d="M165.2,12.5h1.9V0.6h-1.9V0.3h5.6v0.2h-1.9v11.9h3.1c2,0,3.2-1.4,3.7-3.6h0.2v3.8h-10.7V12.5z"/>
		<path d="M178.8,12.5h1.9V0.6h-1.9V0.3h3.9l3.2,9.4h0l3.2-9.4h3.9v0.2h-1.9v11.9h1.9v0.2h-5.6v-0.2h1.9V0.7h0l-4.2,12.1l-4.1-12h0
			v11.7h1.9v0.2h-4.1V12.5z"/>
		<path d="M195.3,12.5h1.5L201.5,0h0.4l4.7,12.5h1.6v0.2h-5.4v-0.2h1.9l-1.8-4.8h-4l-1.8,4.8h1.9v0.2h-3.7V12.5z M202.8,7.4
			l-1.9-5.1L199,7.4H202.8z"/>
		<path d="M210.3,12.5h1.9V0.6h-1.9V0.3h3.7l5.9,9.5h0V0.6H218V0.3h4.1v0.2h-1.9V13h-0.3l-7.3-11.7h0v11.2h1.9v0.2h-4.1V12.5z"/>
		<path d="M223.3,12.5h1.5L229.5,0h0.4l4.7,12.5h1.6v0.2h-5.4v-0.2h1.9L231,7.6h-4l-1.8,4.8h1.9v0.2h-3.7V12.5z M230.9,7.4L229,2.3
			L227,7.4H230.9z"/>
		<path d="M238.8,6.6c0-3.5,2.7-6.6,6.2-6.6c1.4,0,2.2,0.7,2.9,0.7c0.5,0,0.6-0.2,0.8-0.4h0.3v3.5h-0.2c-0.4-1.8-1.2-3.6-3.9-3.6
			c-3.7,0-4.1,3.7-4.1,6.3c0,4.9,1.7,6.2,4.1,6.2c3.1,0,3.6-2,4.1-3.7h0.2v3.7h-0.3c-0.2-0.2-0.3-0.4-0.8-0.4
			c-0.7,0-1.6,0.6-3.2,0.6c-1.5,0-2.9-0.5-4.1-1.7C239.7,10.1,238.8,8.6,238.8,6.6z"/>
	</g>
</g>
</svg>
