<?xml version="1.0" encoding="utf-8"?>
<!-- Generator: Adobe Illustrator 18.1.1, SVG Export Plug-In . SVG Version: 6.00 Build 0)  -->
<!DOCTYPE svg PUBLIC "-//W3C//DTD SVG 1.1//EN" "http://www.w3.org/Graphics/SVG/1.1/DTD/svg11.dtd">
<svg version="1.1" id="Layer_1" xmlns="http://www.w3.org/2000/svg" xmlns:xlink="http://www.w3.org/1999/xlink" x="0px" y="0px"
	 width="247.8px" height="62px" viewBox="0 0 247.8 62" enable-background="new 0 0 247.8 62" xml:space="preserve">
<g>
	<g>
		<g>
			<path fill="#231F20" d="M71.9,0.7c-0.5,1.4-0.7,2.9-1.4,4.2c-0.3,0.5-0.8,0.9-1.1,1.5c-0.9,1.7-1.1,3.5-2.1,5.2
				c-0.3,0.5-1,0.8-1.1,1.4c-0.1,0.3-0.1,0.6-0.1,0.9c-0.3,1.4-2,3.1-2.4,4.6c-0.1,0.5-0.1,0.9-0.1,1.4c-0.2,0.9-0.9,1.4-1.2,2.2
				c-0.5,1.1-0.7,2.2-1.2,3.2c-0.4,0.8-0.9,1.6-1.3,2.5c-1.2,2.1-2.8,4.8-3.2,7c-0.1,0.4-0.2,1.5-0.1,1.8c0.1,0.1,0.4,0.1,0.4,0.4
				c0.1,0,0.1,0,0.2,0c0.3,0,0.5,0.2,0.8,0.2c1.3,0,2.4-2.6,3.2-3.4c1.1-1.3,2.6-2.2,3.6-3.6c0.7-0.8,0.9-1.8,1.5-2.6
				c0.5-0.5,1.2-0.9,1.6-1.4c0.6-0.6,0.9-1.5,1.4-2.1c0.3-0.3,1.1-0.6,1.3-0.9c0.3-0.4,0.1-0.8,0.5-1.2c0.4-0.5,1.1-0.7,1.6-1.2
				c0.5-0.6,0.6-1.3,1.1-1.9c0.7-0.7,1.8-0.9,2.8-1.5c0.8-0.5,1.2-1.2,1.9-1.8c0.6-0.5,1.6-0.9,2.2-1.5c0.6-0.7,0.6-1.6,1.2-2.3
				c0.6-0.7,1.8-1,2.4-1.6c0.5-0.5,0.7-1.2,1.2-1.7c1.8-1.9,4.1-2.9,6.8-3.5c0.1,0.5,0.6,0.1,0.3,1.1c-0.2,0.9-1,1.6-1.3,2.3
				c-0.3,0.5-0.3,1.1-0.4,1.6c-0.1,0.4-0.2,0.7-0.4,1.1c-0.3,0.5-1,0.9-1.4,1.5c-1.1,1.5-1.8,3.2-3,4.6c-0.5,0.6-1.3,1.2-1.7,1.9
				c-1.5,2.6-1.6,5.8-2.4,8.5c-0.8,2.5-2.9,4.7-3.4,7.3c-0.2,1.2-0.3,2.3-0.5,3.5c-0.5,2.2-1.3,2.3-2,3.8c-0.2,0.6-0.3,1.2-0.4,1.8
				c-0.1,0.5-0.2,1-0.1,1.4c0.1,0.6,0.9,0.8,0.8,1.5c-0.1,0.3-0.3,0.6-0.2,0.8c-1.8,0.7-5.5,2.4-7.3,2.4c-0.6,0-0.5-0.4-1.1-0.5
				c0.1-0.1,0.1-0.1,0.1-0.2c0.1-0.3,0.1-0.6,0.1-0.9c0-0.1,0.1-0.2,0.1-0.3c0.2-0.2,0.9-0.5,1.2-0.8c1.2-0.8,3.4-2.8,3.9-3.9
				c0.2-0.5,0.3-0.9,0.5-1.4c0.2-1.2,0.2-2.3,0.4-3.5c0.2-1.1,0.3-1,1.1-1.9c0.3-0.5,0.7-3.2,1.3-4.3c0.5-0.8,1.4-1.5,1.8-2.3
				c1-2.4,1.1-4.9,1.9-7.3c0.5-1.3,2.8-4.5,2.9-5.3c0.1-0.3-0.5-0.8-0.5-1c-0.8,0.2-1.9,0.1-2.6,0.7c-0.4,0.4-0.4,0.9-0.7,1.4
				c-0.5,0.5-1.6,0.8-2.2,1.4c-0.6,0.6-0.8,1.3-1.4,1.9c-0.3,0.2-0.7,0.2-0.9,0.5c-1,0.9-2.1,3.2-3.2,4.5c-0.9,0.9-2,1.6-2.9,2.6
				c-0.8,0.9-1.2,2.1-2.2,3c-0.3,0.3-0.9,0.4-1.2,0.7c-0.4,0.4-0.4,1-0.7,1.5c-0.6,0.6-1.6,1-2.2,1.6c-0.9,0.9-1.3,1.9-2,2.9
				c-1,1.1-2.3,1.9-3.3,3c-0.7,0.9-1.6,1.9-2.1,2.9c-0.3,0.5-0.3,0.9-0.5,1.4c-0.5,2.3-3.7,3.6-5.8,4.7l-0.3,0.5c-0.1,0-0.1,0-0.2,0
				c-0.3,0-0.6-0.1-0.9,0c-0.1-0.7-0.5-1.3-0.4-2.1c0.2-0.9,0.9-1.5,1.3-2.3c1-2.2,1.3-4.6,2.7-6.8c0.7-1.1,1.8-2.2,2.2-3.3
				c0.7-1.7,0.7-3.5,1.6-5.1c0.9-1.8,2.3-3.4,2.8-5.3c0.2-1.1-0.4-1.1-1.1-1.8c-0.5,0.2-0.9,0.1-1.3,0.2c-1.1,0.5-2.8,2.9-3.9,3.8
				c-0.8,0.5-1.7,0.8-2.4,1.4c-1,0.9-1.5,2.1-2.6,2.8c-2.6,1.8-5.3,3.6-8,5.5c-0.9,0.6-1.5,1.6-2.4,2.1c-1.2,0.6-2.7,0.9-3.7,1.7
				c-0.7,0.5-1,1.2-1.7,1.6c-1.2,0.8-2.8,0.9-4,1.7c-0.6,0.4-1,1.1-1.6,1.4c-0.6,0.3-1.2,0.2-1.8,0.4c-1.2,0.4-3.5,2.2-4.5,2.2
				c-0.2,0-0.4-0.1-0.7-0.1c-0.8,0-1.9,0.9-2.7,1.2c-0.7,0.2-1.2,0.1-1.8,0.2c-1.5,0.5-2.8,1.5-4.4,1.9c-1,0.2-2.1,0.3-3,0.3
				c-1.3,0-5.7-0.2-5.4-2c0.2-1,2.1-1.5,2.8-2.1c0.9-0.7,1.3-2.1,2.6-2.3c0.2-0.1,0.4-0.1,0.6-0.1c0.8,0,1.2,0.4,2,0.5
				c1.4,0.4,3,0.4,4.5,0.4c1.6,0,4.6-0.1,6.2-0.6c0.9-0.2,1.5-0.9,2.4-1.2c1-0.4,2-0.4,3-0.7c0.6-0.2,1-0.7,1.5-0.9
				c1-0.5,2.1-0.6,3.1-1.2c1.1-0.6,1.8-1.5,2.9-2.1c0.5-0.4,1.1-0.4,1.6-0.7c2.2-1.3,4.1-3.2,6.2-4.8c1.5-1.1,3.2-2,4.6-3.3
				c1.2-1.2,2.1-2.6,3.4-3.8c0.7-0.6,1.6-0.9,2.2-1.6c0.8-0.9,1.2-1.9,1.9-2.9c0.9-1.1,2.2-1.9,3-3.1c0.3-0.4,0.2-0.8,0.4-1.2
				c0.4-0.6,1.2-1.1,1.7-1.6c0.8-0.9,1.2-2.1,1.9-3c0.6-0.8,1.8-1.3,2.2-2.1c0.5-0.8,0.6-1.8,0.7-2.7c0.3-1.5,1.1-1.8,1.4-2.9
				c0.2-0.6,0.3-1.2,0.4-1.7c0.1-0.4,0.2-0.8,0.5-1.2h0.3c0.3-0.1,3.5-2.6,3.6-2.8c0.2-0.2,0.2-0.5,0.5-0.6c0.5-0.4,1.9-0.8,2.6-1
				C71.1,0.3,71.5,0.5,71.9,0.7z"/>
			<path fill="#231F20" d="M97.4,25.5c1.8,0.5,1.8,0.4,2,2.3c0.3,2.9-0.5,1.9-1.3,3.8C97.9,32,98,32.4,98,32.8
				c-0.4,1.2-1,1.4-1.7,2.3c-0.3,0.5-0.3,1.1-0.7,1.5c-0.5,0.6-1.6,0.8-1.6,1.6c0.1,0.4,0.3,0.7,0.3,1.1c0.1,1.1-1.1,1.8-1,2.9
				c0.1,1.2,1.4,2.2,2.8,2.2c0.6,0,1-0.5,1.6-0.5c0.5,0,0.7,0.4,1,0.6c-0.1,0.5,0.1,1-0.2,1.4c-0.3,0.5-1.1,0.5-1.6,0.8
				c-0.6,0.4-0.5,1.2-1.4,1.3c-0.9,0.6-1.7,0.8-2.8,0.8c-2,0-3-1.4-4.4-1.5c-1.3,0-2.8,0.5-3.9,0.9L84,48.6l-0.7,0.1
				c-2,0.1-4.5-0.4-4.8-2.7c-0.1-0.8,0.5-1.2,0.5-2.1c-0.1-1.2,1-1.8,1.4-2.8c0.5-1.3,0.6-2.7,1.3-3.9c0.3-0.6,1-0.9,1.3-1.5
				c0.2-0.4,0.2-0.8,0.5-1.1c0.5-0.7,2.1-1.2,2.3-1.6c0.8-1.4,3.5-4.2,5.3-4.2c0.5,0,2-0.5,2.7-0.6C94.8,27.2,96.3,26.5,97.4,25.5
				L97.4,25.5z M85,40c0,0.2-0.1,0.4-0.1,0.6c-1.3,0.6-3,2.7-2.9,4.1c0.1,0.5,1.6,1.8,2.2,1.8c3.4,0,2.5-1.3,3.4-1.8
				c0.9-0.5,1.7-0.6,2.4-1.6c0.6-1.1,0-2.5,0.4-3.6c0.5-1.6,1.8-2,1.5-4.5c-0.1-0.8-0.5-1.5-1.5-1.5C88.6,33.3,84.8,38.3,85,40
				L85,40z"/>
		</g>
		<path fill="#231F20" d="M117.9,25.8c0.3,0,0.7,0.2,1,0.4c2.8,0.4,2.9,0.2,3.2,2.8c0.1,0.4,0.5,0.6,0.5,1.1
			c0.1,0.5-1.3,1.8-1.9,1.8c-1.1,0-1.4-1.3-2.5-1.3c-0.8,0-1.4,0.5-2,0.9c0.5,1.1,0.5,1.2,0.6,2.3c0.1,0.4,0.4,0.7,0.5,1
			c0.1,0.4-0.4,0.6-0.4,1.1c0.1,0.6,0.3,1,0.1,1.6c0.1,0.4,0.3,0.8,0.4,1.2c0.1,0.8-0.5,0.8-0.7,1.3c-0.3,0.6-0.1,1.3-0.4,1.9
			c-0.3,0.5-2.8,3.1-3.4,3.6v0.3c-0.3,0.2-0.7,0.4-0.9,0.6l0.1,0.3c-0.7,0.6-3,2.5-4,2.5c-0.5,0-0.9-0.3-1.3-0.3
			c-0.7,0-1.1,0.5-1.8,0.6c-0.7,0-1.2-0.4-1.9-0.4c-0.5,0-0.9,0.1-1.4,0.1c-0.8,0-1.5-0.1-2.4-0.1c-0.3-1-1-1.9-1.1-3
			c-0.1-0.5,0.5-0.8,0.3-2.1c-0.1-0.5,1.8-2.5,2.1-2.9h0.3c0.6-0.1,1.1,0.4,1.8,0.4c0.5,0,0.5,0.5,0.9,0.8c0.3,0.2,0.7,0.1,0.9,0.3
			c0.2,0.2,0.2,0.6,0.5,0.8c0.3,0.2,0.7,0.1,1,0.2c1.2,0.6,0.5,1.5,3,1.6c3.2,0,4.3-1.9,4.9-4.3c0.2-0.7,1.2-1.3,1.1-2.1
			c-0.1-0.6-0.8-0.6-1-2.9c-0.1-1.1-0.7-2.1-0.8-3.1c-0.1-0.6,0.3-1.3,0.2-2.5c-0.1-1.5,1.4-1.3,2.2-2.3c0.2-0.2,0.1-0.6,0.3-0.8
			C115.9,26.9,117.7,25.9,117.9,25.8L117.9,25.8z"/>
		<path fill="#231F20" d="M136.6,26c-0.4,0.3-0.9,0.4-1.3,0.6c-0.7,0.4-1.1,1-1.7,1.5c-0.4,0.3-1,0.7-1.3,1.1
			c-0.2,0.2-1.8,2.1-2,2.4c-0.1,0.1-0.4,0.2-0.5,0.3c-0.3,0.2-0.3,0.7-0.5,1c-0.2,0.3-0.6,0.5-0.8,0.8c-0.3,0.5-0.3,1-0.7,1.5
			c-0.2,0.2-0.5,0.4-0.6,0.7c-0.1,0.2,0.1,0.5,0,0.6c-0.2,0.5-0.7,0.8-0.9,1.3c-0.3,0.6-1.3,4-1.4,4.7c0,1.3,0.5,2.7,0.8,4
			c0.1,0,0.2,0.1,0.2,0.1c0.2,0.2,0.4,0.5,0.6,0.8l-0.2,0.1c0.1,0.2,0.4,0.3,0.6,0.5c0.4,0.3-0.3,0.3,0.3,0.9
			c0.2,0.2,0.5,0.9,1.1,1.6c0.6,0.6,0.8,0.7,1.7,1.2c0.2,0.1,0.5,0.5,0.7,0.7c0.5,0.4,0.9,0.3,1.3,0.6c0.5,0.5-0.2,1.5-0.7,1.7
			c-0.2,0-0.4,0-0.5,0.1c-0.5-0.2-1.6-0.6-1.9-0.9c-0.3-0.3-0.3-0.6-0.7-0.9c-0.4-0.4-1.1-0.7-1.5-1.1c-0.6-0.5-0.7-1.1-1-1.7
			c-0.2-0.3-0.8-0.7-1-1l0.2-0.1c-0.1-0.1-0.2-0.2-0.3-0.2l-0.1-0.1l0.3-0.4c0-0.3-0.4-0.6-0.4-0.9l0.1-0.2
			c-0.1-0.3-0.3-0.5-0.4-0.8l0.1-0.2c-0.1-0.4-0.3-0.9-0.3-1.3c0-0.2,0.2-0.5,0.1-0.7c0-0.3-0.2-0.5-0.3-0.8c0-0.4,0.7-3.3,0.9-3.8
			c0.1-0.2,0.3-0.3,0.4-0.5c0.2-0.5,0.2-1.1,0.4-1.6c0.1-0.2,0.5-0.6,0.5-0.8l0-0.3c0.1-0.2,0.4-0.2,0.5-0.4c0.1-0.2-0.1-0.5,0-0.7
			c0.1-0.2,0.5-0.3,0.6-0.5c0.2-0.3,0.1-0.6,0.2-0.9c0.1-0.2,0.4-0.3,0.6-0.4c0.2-0.2,0.2-0.6,0.4-0.8c0.2-0.3,0.5-0.5,0.8-0.8
			c0.8-1,1.4-2.1,2.3-3.1c0.6-0.6,1.4-1,2-1.6c0.3-0.2,0.3-0.6,0.6-0.8c0.3-0.2,0.7-0.3,1-0.5c0.6-0.4,1-1,1.6-1.4
			c0.4-0.3,0.9-0.4,1.3-0.6c1.8-1.1,3.7-2.1,5.7-3.1c1.7-0.3,3.9-0.3,5.6-0.6c0,0.1,0.1,0.1,0.2,0.2l0.4,0.3l-0.7,0.3l-0.3,0.2
			l0.2,0.1c-0.2,0.1-0.4,0.2-0.7,0.2l-0.1,0.1l0.1,0.1l-0.4,0.2c-1.2,0.5-1.1,0.1-2.2,0.1c-1,0-4.6,1.6-5.4,1.9
			c-0.9,0.5-2.6,0.9-3.2,1.5C136.8,25.7,136.7,25.9,136.6,26z"/>
		<g>
			<path fill="#231F20" d="M157.5,27.4c0.4,0.1,0.7,0,1.1,0.2c0.2,0.1,1.7,1.6,1.7,1.7c0.2,0.4,0.3,1,0.3,1.3c0,0.3,0.1,0.9,0,1.2
				c0,0.1-1.1,0.9-1.2,0.9c-0.3,0-0.6-0.2-0.6-0.4c0-0.3,0.3-0.5,0.3-0.8c0-0.2-0.7-1.8-0.9-1.9c-0.3-0.2-0.7,0-1-0.2
				c-1.1-0.3,0-0.5-1.7-0.5c-0.4,0-0.7-0.1-1.1-0.1c-1,0-0.5,0.5-1.7,0.5h-0.1l-0.1,0.2c-0.4,0.1-0.9,0.2-1.2,0.3
				c-0.2,0.1-0.3,0.4-0.5,0.4c-0.2,0.1-0.4,0.1-0.6,0.2c-0.7,0.4-0.1,0.6-1.4,1c-0.7,0.3-1,1.3-1.2,1.9c-0.1,0.4-0.5,0.7-0.7,1
				c-0.1,0.3-0.1,0.6-0.2,0.8c-0.3,0.6-1.5,1.3-1.4,2.1c0.1,0.8,0.9,1,1.6,1c0.2,0,0.4,0,0.5,0l0.3-0.2h0.1c0.4,0,0.7,0.4,1,0.3
				c0.2,0,0.4-0.1,0.6-0.2c0.2,0,0.3,0.1,0.4,0.2l0,0.3c0,0.2-0.8,1.1-1,1.1c-0.3,0-0.5-0.4-0.9-0.4c-0.5,0-0.5,0.4-0.8,0.5
				c-0.6,0.2-1.2,0.1-1.9,0.1c-0.8,0-0.9,0.3-1.4,0.8c-0.2,0.5-0.1,1.5-0.1,2.1c0,0.3-0.6,1.2-0.7,1.4l0.1,0.4
				c0,0.3-0.5,0.4-0.6,0.6c-0.1,0.3,0,0.6,0,0.9v0.2l-0.1,0.1v0.1c-0.9,0.8-0.5,0.7-0.7,1.7c-0.2,0.8-0.7,0.3-0.6,1.6
				c0,0.5-0.6,0.7-0.8,1.1c-0.2,0.4-0.1,0.9-0.2,1.3c-0.1,0.2-0.3,0.3-0.4,0.5c-0.2,0.3-0.2,0.8-0.4,1.1c-0.1,0.1-0.3,0.1-0.4,0.2
				c-0.1,0.2,0,0.4-0.1,0.5c-0.1,0.2-0.3,0.2-0.5,0.3c-0.4,0.4-0.6,1-1,1.4c-0.2,0.3-0.7,0.4-0.9,0.7c-0.1,0.2-0.1,0.5-0.4,0.7
				c-0.4,0.3-1,0.3-1.4,0.6c-0.2,0.1-0.2,0.3-0.4,0.4c-1.2,1.1-1.6,1.3-3.2,1.7l-0.2,0.2c-0.2,0-0.5,0-0.7,0c-0.5,0-0.5,0.5-1.1,0.5
				c-0.4,0-0.7-0.2-1-0.2l-0.2,0l-0.1,0.1c-0.2,0.1-0.5,0-0.8,0c-0.6,0-1,0.4-2.2,0.5h-0.2l-0.1,0.2c-0.2,0-0.4-0.1-0.6-0.1
				c-0.2,0-0.4,0.2-0.7,0.2c-0.4,0-0.4-0.2-0.7-0.2c-0.2-0.1-0.5,0-0.8-0.1c-0.2-0.1-2.2-1.8-2.2-2l-0.1-1.1c0-0.3,0.4-0.3,0.4-0.9
				c0-0.3,0.1-0.2,0.3-0.3c0.1-0.2,0-0.4,0.2-0.6c0.1-0.1,1.2-0.5,1.5-0.6l0.2,0l0.1,0.1c0.5,0.3,1.5,1,1.7,1.1l0.1,0.2
				c0.3,0.2,0.9,0.1,1.2,0.3c0.7,0.4,1.1,1.7,2,1.6c0.6,0,0.8-0.5,1.4-0.5c0.3,0,0.6,0.1,0.9,0.1c0.9,0,4.5-1.3,5.2-1.6
				c0.3-0.1,0.4-0.7,0.7-0.9c0.2-0.2,0.6-0.2,0.9-0.4c0.6-0.4,1.7-1.6,1.6-2.2c0.4-0.6,0.4-1.2,0.7-1.8c0.2-0.4,0.6-0.6,0.7-0.9
				c0.1-0.3,0-0.7,0.1-1c0.2-0.7,0.8-1.7,0.7-2.4c-0.1-0.6,0.6-0.7,0.5-1.6c0-0.3,0.3-1,0.4-1.2l0.1,0c0-0.2,0-0.4,0-0.6
				c-0.1-0.7,0.6-0.6,0.5-2v-0.2h0.1c0.1-0.4,0-0.7,0.2-1.1l0.2-0.1l0-0.2c0-0.3-0.6-0.3-0.8-0.4c-0.1-0.1-0.5-1-0.5-1.1
				c-0.1-0.8,2.2-1,2.5-1.3c0.4-0.4,0.9-1.6,1.1-1.9c0.2-0.3,0.5-0.4,0.7-0.7c0.2-0.3,0.1-0.8,0.4-1.1c0.1-0.2,0.3-0.2,0.5-0.4
				c0.2-0.3,0.3-0.7,0.6-1.1c0.2-0.3,0.7-0.5,0.9-0.8c0.3-0.4,0.4-0.8,0.7-1.1c0.3-0.2,0.7-0.3,1-0.5c0.5-0.5,0.5-1.1,1.4-1.6
				c0.4-0.2,0.9-0.3,1.3-0.4c1-0.5,0.7-1.3,2.4-1.3c0.4,0,0.8-0.4,1.6-0.4C156.7,27,156.6,27.1,157.5,27.4z"/>
			<path fill="#231F20" d="M157.2,36.2c1,0.3,1,0.2,1.1,1.2c0.1,1.6-0.3,1-0.7,2c-0.1,0.2,0,0.5-0.1,0.7c-0.2,0.7-0.5,0.8-0.9,1.2
				c-0.2,0.3-0.2,0.6-0.4,0.8c-0.2,0.4-0.9,0.4-0.9,0.9c0,0.2,0.1,0.4,0.2,0.6c0.1,0.6-0.6,1-0.5,1.6c0.1,0.7,0.8,1.2,1.5,1.2
				c0.3,0,0.5-0.3,0.9-0.3c0.3,0,0.4,0.2,0.5,0.4c0,0.3,0,0.5-0.1,0.8c-0.2,0.3-0.6,0.3-0.9,0.4c-0.3,0.2-0.3,0.7-0.8,0.7
				c-0.5,0.3-0.9,0.4-1.5,0.4c-1.1,0-1.6-0.8-2.4-0.8c-0.7,0-1.5,0.3-2.1,0.5l-0.2,0.2l-0.4,0.1c-1.1,0.1-2.5-0.2-2.6-1.5
				c0-0.4,0.3-0.7,0.2-1.1c-0.1-0.7,0.5-1,0.8-1.5c0.3-0.7,0.3-1.5,0.7-2.1c0.2-0.3,0.5-0.5,0.7-0.8c0.1-0.2,0.1-0.4,0.2-0.6
				c0.2-0.4,1.1-0.7,1.2-0.9c0.4-0.8,1.9-2.3,2.9-2.3c0.3,0,1.1-0.3,1.5-0.4C155.8,37.1,156.5,36.7,157.2,36.2L157.2,36.2z
				 M150.4,44.1c0,0.1,0,0.2,0,0.3c-0.7,0.3-1.6,1.5-1.6,2.2c0,0.3,0.9,1,1.2,1c1.8,0,1.4-0.7,1.9-1c0.5-0.3,0.9-0.3,1.3-0.9
				c0.3-0.6,0-1.3,0.2-2c0.3-0.9,1-1.1,0.8-2.5c0-0.4-0.3-0.8-0.8-0.8C152.4,40.4,150.3,43.1,150.4,44.1L150.4,44.1z"/>
		</g>
		<g>
			<path fill="#231F20" d="M166.2,36.6c0,0.7-0.5,0.6-0.5,1.1c0,0.4,0.3,0.7,0.8,0.6c1,0,0.9-1.2,2-1.2c1.2,0,1.9,1.2,1.9,1.2
				c0.3,0.1,0.4,0,0.7,0c0.4,0,0.2,0.2,0.4,0.2c-0.2,0.5-0.6,1.2-1.4,1.2h0c-0.3-0.4-1.6-0.9-2.1-0.9c-1.1,0-1.6,1.7-2.5,2.2
				c-0.2,0.3-0.1,0.5-0.2,0.8c-0.1,0.3-0.5,0.8-0.6,1c-0.3,0.5-1,0.8-1.4,1.4c-0.1,0.3-0.1,0.5-0.2,0.8c-0.1,0.2-0.6,0.4-0.6,0.6
				l0,0.2c0,0.2-0.4,0.3-0.6,0.4c-0.8,0.6-1.7,2-2.7,2.3c-0.3-0.4-0.4-0.8-0.4-1.2c0-1.1,0.6-0.9,1.1-1.6c0.3-0.4,0.1-0.6,0.6-0.9
				c0.2-0.3,0.1-0.7,0.3-1c0.2-0.7,1-1.5,1-2.3c0-0.7,1-1,0.9-1.6c0-0.4-0.3-0.6-0.6-0.6c-0.1,0-0.2,0-0.4,0.1l-0.1,0.1
				c-0.7,0.4-0.7,0.8-0.9,0.9c-0.2,0.2-0.6,0.1-0.9,0.2c-0.8,0.4-0.8,1.1-1.2,1.7c-0.2,0.3-0.7,0.3-1,0.5c-0.3,0.2-0.8,1.1-1.1,1.1
				h-0.1h-0.1h-0.1l-0.3-0.3c0.1-0.1,0.1-0.2,0.1-0.2c0.6-0.5,1.3-1,1.8-1.5c0.3-0.3,0.4-0.7,0.7-1c0.3-0.3,0.7-0.3,1-0.7
				c0.1-0.2,0.1-0.4,0.3-0.5c0.2-0.3,0.6-0.3,0.9-0.5c0.2-0.2,0.2-0.5,0.4-0.6c0.3-0.3,1.9-1.3,2.2-1.4c0.2-0.1,0.5-0.8,0.8-1
				l1.2-0.5C165.9,35.8,166.2,36.4,166.2,36.6z"/>
			<path fill="#231F20" d="M174.3,36.2c1,0,0.6,0.8,1.1,1.2c0.1,0.1,0.3,0.2,0.4,0.3c2.1-0.3,2.4-1.4,3.3-1.4c1.2,0,1.7,1.1,1.9,2
				c0.1,0.3,0.3,0.5,0.7,0.5c0.1,0,0.2,0,0.2-0.1h-0.1c0.4-0.2,0.9-0.4,1.3-0.6l0.1-0.2c0.6,0,0.8-0.9,1.7-0.9c0.4,0,0.7,0.2,1,0.3
				l0,0.1c0.2,0.2,0.3,0.5,0.3,0.7c0,0.3-0.2,0.4-0.2,0.6c-0.1,0.3,0.1,0.6,0,0.9c-0.1,0.4-0.7,0.5-0.9,0.9c-0.3,0.4-0.3,1-0.6,1.4
				c-0.1,0.2-0.4,0.2-0.5,0.4c-0.2,0.3-0.2,0.7-0.4,1c-0.2,0.4-1,1.1-0.9,1.5l0.1,0.2c0,0.3-0.5,0.4-0.4,1c0.1,0.3,0.3,0.6,0.7,0.6
				c0.3,0,0.3-0.3,0.5-0.3c0.2,0,0.4,0,0.5,0.1h0l0.2,0.1l0,0.1l0.1,0.2l0,0c-0.1,0.5-1.2,0.5-1.5,0.7c-0.7,0.4-0.3,0.9-1.5,0.9
				c-0.6,0-1-0.4-1.1-0.9c-0.1-0.4,0.8-1.4,0.9-1.8c0.2-0.4,0.1-1,0.2-1.4c0.2-0.7,0.8-1.1,1.1-1.7c0.1-0.3,0.1-0.6,0.2-0.9
				c0.1-0.2,0.4-0.3,0.5-0.5c0.2-0.4,0.2-0.8,0.5-1.2c0.1-0.2,0.3-0.3,0.3-0.4c0-0.2-0.2-0.4-0.4-0.5c-0.1,0-0.2,0-0.4,0
				c-0.1,0-2.4,1.4-2.6,1.5c-0.4,0.3-0.2,0.6-0.8,0.8c-0.3,0.3-0.2,0.9-0.5,1.2c-0.1,0.2-0.4,0.2-0.4,0.3c-0.1,0.2,0,0.4-0.1,0.5
				c-0.6,0.3-0.4,0.7-0.7,1.1c-0.2,0.2-0.5,0.2-0.7,0.4c-0.2,0.2-0.1,0.6-0.3,0.8c-0.1,0.2-0.4,0.3-0.6,0.5
				c-0.4,0.7,0.2,1.9-1.1,2.2c-0.5-0.3-0.8-0.3-0.9-0.8c-0.1-0.6,0.4-1,0.2-1.6c0-0.1,0.4-0.4,0.4-0.5c0.2-0.3,0.2-0.6,0.4-0.9
				c0.2-0.2,0.5-0.3,0.6-0.5c0.1-0.3-0.1-0.8,0.1-1.1c0.3-0.8,2.2-1.2,1.8-3.6c-0.1-0.3-0.3-0.6-0.7-0.6c-0.8,0-2,0.6-2.6,1.1
				c-0.3,0.2-0.4,0.6-0.6,0.8c-0.2,0.2-0.5,0.2-0.7,0.4c-0.2,0.3-0.1,0.8-0.2,1.1c-0.1,0.2-0.3,0.2-0.4,0.4c-0.1,0.2,0,0.5-0.1,0.7
				c-0.1,0.3-0.4,0.5-0.5,0.8c-0.1,0.3,0,0.6-0.1,0.8c-0.5,0.3-0.2,0.4-0.5,0.8c-0.2,0.3-0.6,0.5-0.9,0.9c-0.4,0.7-0.1,2-1.3,2
				c-0.3,0-0.6,0-0.8-0.1c-0.1-0.2-0.3-0.4-0.4-0.6c0-0.2,1-2.7,1.2-2.9c0.1-0.2,0.5-0.3,0.6-0.5c0.2-0.3-0.1-0.8,0.1-1.1
				c0.2-0.5,1.8-0.9,1.4-2.8c-0.1-0.4-0.4-0.7-0.4-1.1c-0.1-0.6,0.4-1.4,0.5-1.9C172,37.3,173.9,36.2,174.3,36.2L174.3,36.2z"/>
		</g>
		<g>
			<path fill="#231F20" d="M193,37.4c0.3-0.2,0.7-0.1,1-0.2c0.8-0.3,0.8-0.8,2-0.8c0.3,0,0.5,0.1,0.8,0c0.4,0.2,0.6,0.5,0.6,0.8
				c0,0.4-1.8,2.7-1.7,3.7c0,0.4-0.7,0.7-0.6,1.5c0,0.4-0.4,0.4-0.4,0.6v0.2c0.4,0.2,0.7,0.4,0.8,0.9c0,0.4-0.2,0.8-0.4,1
				c-0.1,0.2-2.6,2.2-3,2.5c-0.1,0.1-0.1,0.3-0.3,0.3c-0.1,0.1-0.3,0-0.5,0.1c-0.4-0.3-0.7-0.7-0.7-1.2c-0.1-1.4,1.5-0.5,1.3-2.1
				c-0.1-0.7,0.5-0.9,0.7-1.4c0.2-0.3,0.1-0.8,0.3-1.2c0.2-0.4,0.8-0.5,1-0.9c0.1-0.2,0-0.5,0-0.7c0-0.1,0-0.2,0-0.3
				c0.2-0.2,0.6-0.6,0.5-0.9c0-0.2-0.1-0.3-0.1-0.5h0l-0.2-0.1c-0.2,0-0.4,0.2-0.7,0.1c-0.2,0-0.5-0.2-0.7-0.2l-0.2,0
				c-0.4,0.4-1.3,1.3-1.9,1.5c-0.2,0.2-0.2,0.7-0.4,0.9c-0.1,0.1-0.4,0.2-0.7,0.7c-0.2,0.4-0.2,0.8-0.5,1.2
				c-0.5,1.2-0.8,0.3-0.6,2.1c0,0.2,0,0.5,0,0.7c-0.1,0.3-0.4,0.3-0.6,0.5c-0.3,0.4-1.1,2.2-1.6,2.2c-0.9-0.2-0.9-1.1-0.9-1.6
				c0-0.4,0.4-0.8,0.5-1.2c0-0.4-0.1-0.9,0-1.3c0-0.2,0-0.3,0.1-0.5l0.2-0.1c0.4-0.4,0.9-0.9,0.9-1.5c0-0.4-0.2-0.7-0.1-1.1v-0.1
				l0.2-0.3c0.1-0.2,0-0.4,0.1-0.7c0-0.5,0.5-0.3,0.7-1.7c0.1-0.6,0.8-1,1.1-1.6c0.1-0.3,0.1-0.6,0.3-0.8c0.1-0.2,0.4-0.3,0.5-0.5
				c0.1-0.2,0.1-0.4,0.2-0.5c0.1-0.2,0.4-0.4,0.5-0.5c0.1-0.3,0.1-0.7,0.3-1c0.2-0.3,0.7-0.4,0.9-0.7c0.2-0.3,0.1-0.7,0.3-1
				c0.1-0.2,0.4-0.3,0.4-0.5c0.1-0.2,0.1-0.4,0.2-0.6c0.5-0.9,0.6-0.5,1-1.8l0.1-0.3c0-0.1,0.5-0.2,0.6-0.3c0.6-0.4,0.4-0.8,1.3-1.1
				c0.3-0.3,0.4-0.7,0.6-1c0.4-0.4,0.9-0.6,1.3-0.9c0.6-0.5,1-1.1,1.7-1.6c0.2-0.1,0.5-0.2,0.6-0.3c0.7-0.4,1.2-1.1,1.8-1.5
				c0.3-0.2,0.7-0.2,1.1-0.4c0.1-0.1,0.2-0.4,0.3-0.5l1.3-0.8c0.1-0.1,0.4,0,0.5,0c0.6,0,1.5-0.7,2.4-0.7c0.4,0,0.7,0.1,1.1,0.1
				c0.5,0,0.8-0.3,1-0.3c0.5,0,0.8,0.4,1.3,0.6c0.6,0.2,1.3,0.3,1.9,0.6c0.4,0.3,0.5,0.7,0.8,0.9c0.2,0.1,0.5,0.1,0.7,0.3
				c0.2,0.3,0.4,1.4,0.5,1.8c0.1,0.3,0.3,0.3,0.2,0.6c0,0.4-0.7,2.5-1,3h-0.4c-0.2,0-0.2-0.3-0.2-0.4c-0.4-1-0.4-0.5-0.3-1.7
				c0.1-0.6-1.3-2.1-1.9-2.3c-0.3-0.2-0.7-0.1-1.1-0.2c-0.6-0.1-1.2-0.6-1.9-0.6c-0.8,0-1.5,0.4-2.4,0.4c-0.7,0-1.2,0.6-1.8,0.9
				c-0.3,0.1-0.7,0-0.9,0.2c-0.2,0.1-0.4,0.4-0.6,0.5c-0.3,0.2-0.7,0.2-1,0.4c-0.2,0.2-0.2,0.5-0.5,0.6c-0.5,0.3-1.6,0.4-2.3,1.3
				c-0.2,0.3-0.2,0.8-0.5,1.1h-0.2c-0.1,0.2-1.6,1-1.9,1.2l-0.1,0c-0.3,0.4-0.2,1-0.6,1.4c-0.2,0.3-0.6,0.4-0.9,0.7
				c-0.4,0.4-0.4,1-0.8,1.3c-0.3,0.4-0.8,0.6-1,1c-0.2,0.3-0.2,0.6-0.4,0.9c-0.2,0.3-0.5,0.3-0.6,0.7c0,0.2,0.1,0.3,0.1,0.5
				c0,0.2-0.3,0.3-0.4,0.5c-0.1,0.3,0,0.6-0.2,0.9c-0.1,0.3-0.5,0.5-0.7,0.8c-0.3,0.5-0.6,1.1-0.1,1.4l1.6-1
				C192.3,38,192.9,37.7,193,37.4z"/>
			<path fill="#231F20" d="M203.9,35.6c0.4,0,0.9,0.2,1.4,0.2c0.9,0,0.7,1.4,0.8,1.9l0.2,0.3c0,0.2,0,0.4,0,0.6
				c0,0.9-0.4,1.3-0.4,2.3c0,0.9-0.2,0.9-0.6,1.6c-0.2,0.3-0.3,0.6-0.5,0.9c-0.1,0.2-0.4,0.2-0.5,0.4c-0.2,0.3-0.1,0.6-0.3,0.9
				c-0.2,0.4-0.7,0.5-1,0.8c-0.9,1.2-2.4,3-4.1,3c-0.8,0-2.7-1.3-2.7-2c0-0.1,0.5-2,0.6-2.2c0.1-0.2,0.3-0.3,0.4-0.4
				c0.1-0.2,0-0.5,0.1-0.7c0.1-0.3,0.4-0.4,0.5-0.6c0.1-0.3,0.1-0.5,0.2-0.8c0.1-0.3,0.4-0.5,0.5-0.8c0.1-0.2,0.1-0.5,0.2-0.7
				c0.2-0.3,0.5-0.4,0.8-0.7c0.4-0.5,1.1-1.4,1.6-1.8c0.3-0.2,0.7-0.3,0.9-0.6C202.4,36.5,202.7,35.6,203.9,35.6L203.9,35.6z
				 M201.4,40.4c-0.3,0.4-1.1,0.9-1.5,1.5l-0.2,0.1c-0.2,0.2-0.2,1.2-0.4,1.6c-0.2,0.4-1,1.6-1,1.9c0,0.4,0.9,1.3,1.3,1.3
				c2.1,0,1.6-1.1,2-1.5c0.1-0.2,0.4-0.2,0.6-0.3c0.9-0.6,0.6-1.8,0.9-2.5c0.7-1.3,0.6-0.1,1-2.2l-0.1-0.1v0c0-0.5,0.2-1.3-0.6-1.3
				C201.8,38.9,202,39.6,201.4,40.4z"/>
		</g>
		<path fill="#231F20" d="M216.7,36c0.5,0,1.5,0.9,1.5,1.4c0,0.2-1.3,1.7-1.2,2.2c0,0.4-1.4,1.2-1.2,2.4c0,0.4-0.1,0.3-0.4,0.5
			c-0.1,0.2-0.8,0.9-0.9,1c-0.2,0.3-0.1,0.7-0.2,1c-0.1,0.2-0.3,0.2-0.4,0.4c-0.3,0.4-0.5,1-0.7,1.5l0.2,0.3l0.5,0.1L214,47
			c0.1,0,0.3,0.1,0.4,0.1c0.6,0,0.8-0.3,1-0.7c0.1-0.1,0.3-0.1,0.4-0.2c0.2-0.1,0.3-0.3,0.5-0.3l0.3,0.2c0,0.2,0,0.4,0,0.6
			c-0.1,0.3-0.6,0.4-0.9,0.6c-1.2,0.9-1,1.4-3,1.4l0.1,0c-0.1,0-0.2,0-0.3,0c-1.1,0-0.9-0.9-1-1.5c0-0.3-0.1-0.5-0.3-0.7l-0.4,0
			c-0.5,0-1,0.5-1.1,0.9c-0.2,0.2-0.7,0.1-1,0.2c-0.7,0.3-0.7,0.8-2,0.8c-0.3,0-0.5-0.1-0.9,0c-0.4-0.2-0.6-0.5-0.6-0.8
			c0-0.4,1.8-2.7,1.7-3.7c0-0.4,0.7-0.7,0.6-1.6c0-0.4,0.4-0.4,0.4-0.6v-0.3c-0.4-0.2-0.8-0.4-0.8-0.8c0-0.3,0.2-0.8,0.4-1
			c0.1-0.2,2.9-2.7,3.2-3c0.1-0.1,0.1-0.3,0.2-0.4c0.1-0.1,0.3,0,0.5-0.1c0.4,0.3,0.7,0.7,0.7,1.2c0.1,1.4-1.7,1-1.5,2.6
			c0.1,0.7-0.5,0.9-0.8,1.4c-0.2,0.3-0.1,0.8-0.3,1.1c-0.2,0.4-0.8,0.5-1,0.9c-0.1,0.2,0,0.5,0,0.7c0,0.1,0,0.2,0,0.3
			c-0.2,0.2-0.6,0.6-0.5,0.8c0,0.2,0.1,0.3,0.1,0.5h0.1l0.2,0.1c0.2,0,0.4-0.2,0.7-0.2c0.3,0,0.5,0.2,0.7,0.2l0.1,0
			c0.4-0.4,1.3-1.3,1.9-1.5c0.2-0.2,0.2-0.4,0.4-0.6c0.3-0.3,0.7-0.5,1-0.8c0.2-0.4,0-0.9,0.2-1.3c0.5-1.2,0.8-0.3,0.6-2.1
			c0-0.2,0-0.5,0.1-0.7c0.1-0.3,0.4-0.4,0.6-0.5C215.3,37.8,216.1,36,216.7,36L216.7,36z"/>
		<g>
			<path fill="#231F20" d="M225.9,35.5c0.2,0,0.4,0.1,0.5,0.2c1.5,0.2,1.6,0.1,1.7,1.5c0,0.2,0.3,0.4,0.3,0.6c0,0.3-0.7,1-1,1
				c-0.6,0-0.7-0.7-1.4-0.7c-0.4,0-0.8,0.3-1.1,0.5c0.3,0.6,0.3,0.6,0.3,1.3c0,0.2,0.2,0.4,0.2,0.5c0,0.2-0.2,0.3-0.2,0.6
				c0,0.4,0.2,0.5,0.1,0.9c0.1,0.2,0.2,0.4,0.2,0.7c0,0.4-0.3,0.4-0.4,0.7c-0.1,0.3,0,0.7-0.2,1c-0.2,0.3-1.5,1.7-1.9,1.9v0.2
				c-0.1,0.1-0.4,0.2-0.5,0.3l0,0.2c-0.4,0.4-1.6,1.3-2.2,1.3c-0.2,0-0.5-0.2-0.7-0.2c-0.4,0-0.6,0.3-1,0.3c-0.4,0-0.7-0.2-1-0.2
				c-0.2,0-0.5,0.1-0.7,0.1c-0.4,0-0.8,0-1.3,0c-0.2-0.5-0.5-1.1-0.6-1.6c0-0.3,0.3-0.4,0.2-1.1c0-0.3,1-1.3,1.1-1.6h0.1
				c0.3,0,0.6,0.2,1,0.2c0.3,0,0.3,0.3,0.5,0.4c0.1,0.1,0.4,0.1,0.5,0.2c0.1,0.1,0.1,0.3,0.2,0.4c0.2,0.1,0.4,0,0.5,0.1
				c0.7,0.4,0.3,0.8,1.6,0.9c1.7,0,2.3-1,2.7-2.3c0.1-0.4,0.6-0.7,0.6-1.1c0-0.3-0.4-0.4-0.5-1.6c-0.1-0.6-0.4-1.1-0.4-1.7
				c0-0.3,0.2-0.7,0.1-1.4c-0.1-0.8,0.8-0.7,1.2-1.2c0.1-0.1,0.1-0.3,0.2-0.4C224.8,36.1,225.8,35.6,225.9,35.5L225.9,35.5z"/>
			<path fill="#231F20" d="M234.1,36.1c0.4,0,0.6,0.2,0.8,0.4l0.1,0c0.1,0,0.2,0.4,0.3,0.5c0.1,0.6-0.2,1.3-0.4,1.9
				c-0.1,0.5,0.1,0.5,0.3,0.9c0.1,0,0.3,0.1,0.5,0.1l0.5-0.2c0,0.3,0,0.5-0.1,0.8c-0.1,0.3-0.2,0.6-0.5,0.8
				c-0.5,0.1-0.7,0.3-1.1,0.6h-0.2c-0.2,0.2-0.3,0.4-0.5,0.6h-0.2h0c-1,0.5-2.8,0.7-3.6,1.1c-0.5,0.3-0.8,0.7-1.2,0.9
				c-0.3,0.3-0.5,1.2-0.6,1.6l0,0.2c0.4,0.2,0.4,0.4,0.9,0.4c0.9,0,3.5-1.6,3.7-2.3c0-0.2,0-0.4,0-0.6c0.1-0.5,1.4-0.6,1.8-0.6
				c0.3,0,0.7,0.1,0.6,0.4c-0.1,0.6-0.6,0.6-0.9,1c-0.2,0.3-0.8,1.2-0.9,1.6c-0.2,0-0.4,0-0.5,0h-0.3l-1.3,0.7l-0.3,0.3
				c-0.3,0.2-0.7,0.2-1,0.4c-1.3,0.7-1.1,1.1-2.8,1.1c-1.1,0-2.1-0.1-1.9-1.3c0.1-0.5,1.6-2.9,1.7-3.1c0-0.2,0-0.3,0-0.5
				c0.1-0.4,1.3-1.6,1.5-2.3c0.1-0.6,0.8-0.5,0.9-1.3c0.1-0.4,0.5-0.4,0.8-0.7c0.2-0.3,0.2-0.6,0.5-0.8c0.4-0.4,1-0.4,1.4-0.8
				c0.2-0.2,0.2-0.5,0.4-0.7C232.6,36.7,233.8,36.1,234.1,36.1L234.1,36.1z M230.6,41.1c-0.1,0.4,0,0.9,0.6,0.9c0.2,0,0.4-0.1,0.7,0
				c0.4-0.4,1-0.8,1.1-1.3c0.1-0.6-0.2-1.2-0.9-1.2C231.2,39.5,230.7,40.5,230.6,41.1L230.6,41.1z"/>
		</g>
		<path fill="#231F20" d="M239,50c0.3-0.3,0.8-0.5,1.1-0.8c0.5-0.5,0.8-1.2,1.2-1.7c0.3-0.4,0.8-0.9,1.1-1.3
			c0.2-0.3,1.3-2.4,1.5-2.7c0.1-0.2,0.3-0.2,0.5-0.4c0.2-0.3,0.2-0.8,0.4-1.1c0.1-0.3,0.5-0.6,0.6-0.9c0.2-0.5,0.1-1,0.3-1.6
			c0.1-0.3,0.4-0.5,0.5-0.8c0-0.2-0.2-0.4-0.2-0.6c0.1-0.5,0.5-0.9,0.6-1.4c0.1-0.7,0.4-4.2,0.3-4.9c-0.3-1.3-1-2.5-1.5-3.8
			c-0.1,0-0.2-0.1-0.2-0.1c-0.3-0.2-0.5-0.4-0.8-0.6l0.2-0.1c-0.2-0.2-0.4-0.2-0.6-0.3c-0.5-0.3,0.2-0.3-0.6-0.9
			c-0.2-0.2-0.6-0.9-1.5-1.4c-0.7-0.5-0.9-0.5-1.9-0.8c-0.1,0-0.6-0.4-0.8-0.5c-0.5-0.3-1-0.1-1.4-0.4c-0.6-0.3-0.1-1.5,0.3-1.8
			c0.2,0,0.4-0.1,0.5-0.2c0.5,0.1,1.7,0.4,2,0.6c0.4,0.2,0.5,0.6,0.8,0.8c0.5,0.3,1.2,0.5,1.7,0.8c0.7,0.4,0.9,1,1.4,1.5
			c0.3,0.3,0.9,0.5,1.1,0.8l-0.2,0.1c0.1,0.1,0.2,0.1,0.3,0.2l0.1,0.1l-0.2,0.5c0.1,0.3,0.5,0.6,0.6,0.9l-0.1,0.2
			c0.1,0.3,0.5,0.5,0.6,0.7l-0.1,0.2c0.1,0.4,0.5,0.8,0.6,1.2c0.1,0.2-0.1,0.5,0,0.8c0.1,0.2,0.4,0.5,0.5,0.7c0.1,0.4,0,3.4-0.1,3.8
			c0,0.2-0.2,0.3-0.2,0.5c-0.1,0.5,0.1,1.1,0,1.7c0,0.2-0.4,0.7-0.3,0.8l0.1,0.3c-0.1,0.2-0.3,0.3-0.4,0.5c-0.1,0.2,0.2,0.4,0.1,0.7
			c-0.1,0.2-0.4,0.4-0.4,0.6c-0.1,0.3,0.1,0.6,0,0.9c-0.1,0.2-0.4,0.3-0.5,0.5c-0.2,0.3-0.1,0.6-0.2,0.8c-0.1,0.3-0.5,0.6-0.6,0.9
			c-0.6,1.1-0.9,2.3-1.7,3.4c-0.5,0.7-1.1,1.2-1.6,1.9c-0.2,0.3-0.2,0.6-0.5,0.9c-0.2,0.2-0.6,0.4-0.8,0.6c-0.5,0.5-0.7,1.2-1.3,1.7
			c-0.3,0.3-0.8,0.5-1.2,0.9c-1.5,1.4-3.2,2.7-5,3.9c-1.6,0.6-3.8,1-5.4,1.6c-0.1-0.1-0.1-0.1-0.2-0.2l-0.5-0.3l0.6-0.4l0.3-0.2
			l-0.2-0.1c0.2-0.1,0.4-0.2,0.6-0.3l0.2-0.1l-0.2-0.1l0.4-0.2c1.1-0.7,1.1-0.2,2.1-0.5c1-0.2,4.2-2.4,4.9-2.8
			c0.8-0.6,2.3-1.4,2.9-2C238.8,50.3,238.8,50.1,239,50z"/>
	</g>
</g>
</svg>
