<?xml version="1.0" encoding="utf-8"?>
<!-- Generator: Adobe Illustrator 18.1.1, SVG Export Plug-In . SVG Version: 6.00 Build 0)  -->
<!DOCTYPE svg PUBLIC "-//W3C//DTD SVG 1.1//EN" "http://www.w3.org/Graphics/SVG/1.1/DTD/svg11.dtd">
<svg version="1.1" id="Layer_1" xmlns="http://www.w3.org/2000/svg" xmlns:xlink="http://www.w3.org/1999/xlink" x="0px" y="0px"
	 width="123px" height="13px" viewBox="0 0 123 13" enable-background="new 0 0 123 13" xml:space="preserve">
<g>
	<g id="last_quarter_253_">
		<path id="last_quarter_254_" fill="#630000" d="M24.8,0c-3.6,0-6.5,2.9-6.5,6.5s2.9,6.5,6.5,6.5s6.5-2.9,6.5-6.5S28.4,0,24.8,0z
			 M19.3,6.5c0-3.1,2.4-5.7,5.5-5.7v11.4C21.7,12.2,19.3,9.7,19.3,6.5z"/>
	</g>
	<g id="waning_gibbous_229_">
		<path id="waning_gibbous_230_" fill="#630000" d="M6.5,0C3.1,0,0.4,2.6,0,5.9c0,0.2,0,0.4,0,0.7C0,6.7,0,7,0,7.2
			C0.4,10.4,3.1,13,6.5,13c0.2,0,0.5,0,0.7,0c0,0,0.1,0,0.1,0c0.2,0,0.4-0.1,0.6-0.1c0,0,0,0,0,0c2.4-0.5,4.3-2.5,4.9-4.9
			c0,0,0,0,0,0c0-0.2,0.1-0.4,0.1-0.6c0,0,0-0.1,0-0.1c0-0.2,0-0.5,0-0.7C12.9,2.9,10,0,6.5,0z M8.9,9c0,0.1-0.1,0.3-0.1,0.4
			c0,0.1-0.1,0.2-0.1,0.4c0,0,0,0,0,0v0c0,0,0,0,0,0c0,0,0,0,0,0c0,0.1-0.1,0.3-0.1,0.4c0,0,0,0,0,0c-0.1,0.1-0.1,0.3-0.2,0.4
			c0,0.1-0.1,0.2-0.1,0.3c-0.1,0.1-0.1,0.2-0.2,0.3c0,0,0,0,0,0c-0.4,0.7-1,1.1-1.6,1.1c-3.1,0-5.6-2.6-5.6-5.7
			c0-3.1,2.5-5.7,5.6-5.7c0.6,0,1.2,0.4,1.6,1.2c0,0,0,0,0,0C8.4,2.5,8.7,3.2,8.9,4c0,0,0,0,0,0C9,4.8,9.1,5.6,9.1,6.5
			C9.1,7.4,9,8.2,8.9,9z"/>
	</g>
	<g id="last_quarter_251_">
		<path id="last_quarter_252_" fill="#630000" d="M91.7,6.5c0,3.6,2.9,6.5,6.5,6.5c3.6,0,6.5-2.9,6.5-6.5c0-3.6-2.9-6.5-6.5-6.5
			C94.6,0,91.7,2.9,91.7,6.5z M98.2,12.2V0.8c3.1,0,5.5,2.6,5.5,5.7C103.7,9.6,101.3,12.2,98.2,12.2z"/>
	</g>
	<g id="waning_gibbous_227_">
		<path id="waning_gibbous_228_" fill="#630000" d="M110.1,6.5c0,0.2,0,0.5,0,0.7c0,0,0,0.1,0,0.1c0,0.2,0.1,0.4,0.1,0.6
			c0,0,0,0,0,0c0.5,2.4,2.5,4.3,4.9,4.9c0,0,0,0,0,0c0.2,0,0.4,0.1,0.6,0.1c0,0,0.1,0,0.1,0c0.2,0,0.5,0,0.7,0
			c3.3,0,6.1-2.6,6.4-5.8c0-0.2,0-0.4,0-0.7c0-0.2,0-0.4,0-0.7c-0.3-3.3-3.1-5.8-6.4-5.8C113,0,110.1,2.9,110.1,6.5z M113.9,6.5
			c0-0.9,0.1-1.7,0.3-2.5c0,0,0,0,0,0c0.2-0.8,0.4-1.5,0.8-2.1l0,0c0.4-0.7,1.1-1.2,1.6-1.2c3.1,0,5.6,2.6,5.6,5.7
			c0,3.1-2.5,5.7-5.6,5.7c-0.6,0-1.2-0.4-1.6-1.1c0,0,0,0,0,0c-0.1-0.1-0.1-0.2-0.2-0.3c0-0.1-0.1-0.2-0.1-0.3
			c-0.1-0.1-0.1-0.3-0.2-0.4c0,0,0,0,0,0c-0.1-0.1-0.1-0.3-0.1-0.4c0,0,0,0,0,0l0,0l0,0c0,0,0,0,0,0c0-0.1-0.1-0.2-0.1-0.4
			c0-0.1-0.1-0.3-0.1-0.4C114,8.2,113.9,7.3,113.9,6.5z"/>
	</g>
	<g id="new_Moon_145_">
		<path id="new_Moon_146_" fill="#630000" d="M61.5,0C65.1,0,68,2.9,68,6.5c0,3.6-2.9,6.5-6.5,6.5c-3.6,0-6.5-2.9-6.5-6.5
			C55,2.9,57.9,0,61.5,0z"/>
	</g>
	<g id="waxing_crescent_107_">
		<path id="waxing_crescent_108_" fill="#630000" d="M36.7,6.5c0,0.2,0,0.5,0,0.7c0,0,0,0.1,0,0.1c0,0.2,0.1,0.4,0.1,0.6
			c0,0,0,0,0,0c0.5,2.4,2.5,4.3,4.9,4.9c0,0,0,0,0,0c0.2,0,0.4,0.1,0.6,0.1c0,0,0.1,0,0.1,0c0.2,0,0.5,0,0.7,0
			c3.3,0,6.1-2.6,6.4-5.8c0-0.2,0-0.4,0-0.7c0-0.2,0-0.4,0-0.7C49.3,2.6,46.5,0,43.2,0C39.6,0,36.7,2.9,36.7,6.5z M37.6,6.5
			c0-3.1,2.4-5.7,5.6-5.7c-0.6,0-1,0.4-1.4,1.2c0,0,0,0,0,0C41.4,2.5,41.2,3.2,41,4c0,0,0,0,0,0c-0.2,0.7-0.3,1.6-0.3,2.5
			c0,0.9,0.1,1.7,0.3,2.5c0,0.1,0.1,0.3,0.1,0.4c0,0.1,0.1,0.2,0.1,0.4c0,0,0,0,0,0v0c0,0,0,0,0,0c0,0,0,0,0,0
			c0,0.1,0.1,0.3,0.1,0.4c0,0,0,0,0,0c0.1,0.1,0.1,0.3,0.2,0.4c0,0,0.1,0,0,0c0,0.1,0.1,0.2,0.1,0.3c0.1,0.1,0.1,0.2,0.2,0.3
			c0,0,0,0,0,0c0.4,0.7,0.8,1.1,1.4,1.1c-0.2,0-0.3,0-0.5,0c0,0-0.1,0-0.1,0c-0.2,0-0.3,0-0.5-0.1c0,0-0.1,0-0.1,0
			c-0.2,0-0.3-0.1-0.5-0.1c0,0-0.1,0-0.1,0c-0.2-0.1-0.3-0.1-0.5-0.2c-1.2-0.6-2.1-1.5-2.7-2.7C38.1,8.8,38,8.6,38,8.5
			c0,0,0-0.1,0-0.1c-0.1-0.2-0.1-0.3-0.1-0.5c0,0,0-0.1,0-0.1c0-0.2-0.1-0.3-0.1-0.5c0,0,0-0.1,0-0.1C37.6,6.9,37.6,6.7,37.6,6.5z"
			/>
	</g>
	<g id="waxing_crescent_105_">
		<path id="waxing_crescent_106_" fill="#630000" d="M79.9,0c-3.3,0-6.1,2.6-6.4,5.8c0,0.2,0,0.4,0,0.7c0,0.2,0,0.4,0,0.7
			c0.3,3.3,3.1,5.8,6.4,5.8c0.2,0,0.5,0,0.7,0c0,0,0.1,0,0.1,0c0.2,0,0.4-0.1,0.6-0.1c0,0,0,0,0,0c2.4-0.5,4.3-2.5,4.9-4.9
			c0,0,0,0,0,0c0-0.2,0.1-0.4,0.1-0.6c0,0,0-0.1,0-0.1c0-0.2,0-0.5,0-0.7C86.3,2.9,83.4,0,79.9,0z M85.4,7.1c0,0,0,0.1,0,0.1
			c0,0.2,0,0.3-0.1,0.5c0,0,0,0.1,0,0.1c0,0.2-0.1,0.3-0.1,0.5c0,0,0,0.1,0,0.1C85,8.6,84.9,8.8,84.8,9c-0.6,1.2-1.5,2.1-2.7,2.7
			c-0.2,0.1-0.3,0.1-0.5,0.2c0,0-0.1,0-0.1,0c-0.2,0.1-0.3,0.1-0.5,0.1c0,0-0.1,0-0.1,0c-0.2,0-0.3,0.1-0.5,0.1c0,0-0.1,0-0.1,0
			c-0.2,0-0.3,0-0.5,0c0.6,0,0.9-0.4,1.4-1.1c0,0,0,0,0,0c0.1-0.1,0.1-0.2,0.2-0.3c0-0.1,0.1-0.2,0.1-0.3c-0.1,0,0,0,0,0
			c0.1-0.1,0.1-0.3,0.2-0.4c0,0,0,0,0,0c0.1-0.1,0.1-0.3,0.1-0.4c0,0,0,0,0,0c0,0,0,0,0,0v0c0,0,0,0,0,0c0-0.1,0.1-0.2,0.1-0.4
			C82,9.2,82,9.1,82,9c0.2-0.7,0.3-1.6,0.3-2.5c0-0.9-0.1-1.7-0.3-2.5c0,0,0,0,0,0c-0.2-0.8-0.4-1.5-0.8-2.1l0,0
			c-0.4-0.7-0.8-1.2-1.4-1.2c3.1,0,5.6,2.6,5.6,5.7C85.4,6.7,85.4,6.9,85.4,7.1z"/>
	</g>
</g>
</svg>
